<svg width="89" height="93" viewBox="0 0 89 93" fill="none" xmlns="http://www.w3.org/2000/svg">
<path d="M5.92252 66.7965C5.92252 66.7965 5.17983 71.6549 6.90504 75.9409C8.34401 79.5306 12.0729 84.2575 19.2059 87.8627C26.3388 91.4678 34.5317 92.7366 46.6236 92.9842C58.7156 93.2395 71.1402 90.4157 77.105 85.1781C83.0775 79.9329 85.1663 75.5231 84.9961 70.7343C84.8259 65.9455 82.2806 64.1274 82.2806 64.1274L5.92252 66.7965Z" fill="#FCB745"/>
<path d="M9.38066 61.9148L5.85287 65.4426C5.85287 65.4426 4.89356 70.1618 10.2162 75.2678C14.2468 79.1282 21.3798 85.8357 45.0686 86.0136C67.2411 86.1838 74.2116 81.3099 78.4898 77.8672C82.7757 74.4245 84.3849 68.4443 83.9594 66.7655C83.5416 65.0867 82.2265 64.1197 82.2265 64.1197L9.38066 61.9148Z" fill="#E78B20"/>
<path d="M10.8892 66.9512C10.8892 66.9512 9.89125 68.6455 10.2162 69.7209C10.4715 70.5641 10.9743 74.0068 20.962 78.3701C26.246 80.6833 35.2356 82.571 46.9098 82.2306C60.758 81.8283 71.8519 79.0432 77.221 73.9991C82.7216 68.8389 81.6694 65.7676 81.6694 65.7676L10.8892 66.9512Z" fill="#FFD290"/>
<path d="M8.03454 55.1914C8.03454 55.1914 4.72337 58.5645 4.17408 60.0653C3.65575 61.4811 3.72537 63.539 4.63827 65.2023C5.86835 67.4304 7.40016 67.6625 9.29557 68.7997C11.3457 70.0221 14.5873 73.8361 22.5635 75.5149C30.5397 77.1937 41.038 77.9518 46.6623 77.9518C52.2867 77.9518 59.76 77.8667 66.7305 75.5149C73.701 73.163 81.6772 68.5444 83.5262 64.4286C85.3752 60.3129 83.6113 57.8759 83.6113 57.8759L79.5806 55.1914H8.03454Z" fill="#6D544D"/>
<path d="M6.10044 50.9137C6.10044 50.9137 3.53196 50.7977 2.91305 54.6891C2.46434 57.5206 4.50675 59.3077 4.50675 59.3077C4.50675 59.3077 3.42365 60.8627 4.67695 62.8355C5.85288 64.6845 7.11391 65.1022 9.71333 65.52C11.5855 65.8217 12.5681 65.2647 15.005 66.6108C18.0609 68.2974 19.3683 71.3145 23.5692 72.2352C27.7701 73.1558 32.4738 72.3203 32.6362 71.6472C32.7987 70.9741 26.7566 68.4598 15.8406 62.3249C12.158 60.2592 8.78497 57.4509 7.86434 56.0274C6.94371 54.604 6.10044 50.9137 6.10044 50.9137ZM58.9245 71.3996C58.9245 72.4905 62.5374 71.9876 64.2162 71.067C65.895 70.1463 68.5795 67.7945 71.0164 66.781C73.4534 65.7753 74.374 66.6959 77.9018 65.0171C81.4296 63.3383 83.3637 59.3928 83.3637 59.3928C83.3637 59.3928 85.0812 57.273 85.2205 55.7876C85.4371 53.5209 85.2127 52.4223 83.619 51.9194C82.0253 51.4166 78.5517 56.6386 78.0488 57.2266C77.546 57.8146 70.1036 63.2532 67.1637 65.3498C64.2239 67.4464 58.9245 70.8117 58.9245 71.3996Z" fill="#9B7169"/>
<path d="M9.38067 48.0588C9.38067 48.0588 5.17981 48.5617 4.59185 50.3256C4.00388 52.0895 5.85288 54.6889 10.7191 57.9691C14.711 60.6536 28.389 67.1135 33.8122 70.4788C40.0245 74.3393 45.2852 79.7315 46.1594 79.8012C47.2503 79.8863 54.8242 71.8404 65.307 64.7694C75.2714 58.0387 82.1027 56.3754 84.5396 51.4164C85.8471 48.7551 82.6906 47.2155 82.6906 47.2155L42.2139 31.8511L9.38067 48.0588Z" fill="#FFE869"/>
<path d="M46.6622 75.2679C47.9155 75.1287 54.4682 68.8003 62.1968 63.9341C69.9255 59.0679 81.3444 53.8536 83.0232 50.9215C84.702 47.9894 80.6713 46.0476 80.6713 46.0476L33.6418 38.1565L6.10029 48.9874C6.10029 48.9874 4.5917 49.4903 5.59743 50.7513C6.60316 52.0124 8.19685 54.1089 11.7246 56.2906C16.0106 58.9442 27.0117 63.3462 33.9745 67.1215C40.9527 70.8969 45.1536 75.4304 46.6622 75.2679Z" fill="#FFBE01"/>
<path d="M9.89124 50.2403L11.3534 54.1549C11.3534 54.1549 21.8749 64.7615 42.8018 65.1792C63.6282 65.597 75.3024 55.6867 75.3024 55.6867L77.9637 49.0024L9.89124 50.2403Z" fill="#F4482B"/>
<path d="M37.3243 56.7082L35.6765 59.3463C35.6765 59.3463 39.1965 61.4584 40.21 61.822C41.6644 62.3403 43.0957 62.1546 45.2387 61.4893C47.3816 60.8317 56.2785 57.2885 56.2785 57.2885C56.2785 57.2885 63.6358 57.3968 68.2544 57.4819C72.3469 57.5592 76.4472 56.0893 78.5902 53.6137C80.7332 51.138 84.0598 45.8309 84.0598 45.8309C84.0598 45.8309 85.7928 45.4208 86.9455 44.0979C88.0982 42.775 88.1833 41.6223 88.1833 41.6223C88.1833 41.6223 87.8507 39.3942 86.6206 38.8217C85.3828 38.2415 30.2533 34.8684 30.2533 34.8684L8.1659 36.5163L4.4447 44.183L16.7223 54.6503L34.0286 55.6406L37.3243 56.7082Z" fill="#A6B732"/>
<path d="M5.59749 37.429C4.35193 36.8643 3.04448 36.9339 2.46425 38.5817C1.88402 40.2296 2.06196 40.9568 2.06196 40.9568C2.06196 40.9568 0.36769 41.3127 0.158807 43.4402C-0.0887572 45.9932 2.71181 46.8983 2.71181 46.8983C2.71181 46.8983 2.84333 47.8886 3.94964 48.8789C5.21067 50.0084 6.4717 49.8923 6.4717 49.8923C6.4717 49.8923 9.79834 53.1648 12.0264 54.48C14.2545 55.7952 17.4651 56.7081 20.6834 56.623C23.9018 56.5379 24.9694 55.0602 27.3599 55.8803C29.7505 56.7003 36.0866 60.0347 38.6396 60.0889C42.678 60.174 51.4123 53.9075 53.3929 53.9926C55.3734 54.0777 64.3553 55.478 69.1364 55.478C73.9175 55.478 75.6504 54.0777 76.7181 52.6774C77.7857 51.2771 79.6037 47.7339 79.0235 47.6488C78.4433 47.5637 74.6525 50.6969 71.937 50.4493C69.2138 50.2018 66.831 48.639 63.4502 48.639C60.0694 48.639 43.5909 50.782 42.5155 51.2771C41.4402 51.7723 36.8293 55.3155 35.9241 55.1531C35.019 54.9906 31.8857 52.3525 30.8181 51.7723C29.7505 51.192 18.5095 50.8207 16.8926 51.1147C15.7321 51.3236 14.092 51.6098 14.092 51.6098C14.092 51.6098 14.2545 49.0568 12.8542 47.5714C11.4539 46.086 6.83531 43.533 6.83531 43.533C6.83531 43.533 7.4078 38.2491 5.59749 37.429ZM78.6908 41.8774C78.6908 41.8774 83.7195 41.8774 85.1198 41.7923C86.5201 41.7072 88.1679 41.6299 88.1679 41.6299C88.1679 41.6299 87.6883 39.3476 86.961 38.133C85.4757 35.6419 81.9014 34.9534 81.9014 34.9534L78.6908 41.8774Z" fill="#C2DD1F"/>
<path d="M4.44479 34.3811L3.89551 36.8103C3.89551 36.8103 11.5004 50.2793 45.6797 50.7899C65.686 51.0917 77.1823 45.0186 82.2573 40.0518C85.2977 37.0733 85.3983 34.1799 85.3983 34.1799L4.44479 34.3811Z" fill="#DE8010"/>
<path d="M2.71203 27.6815C2.27879 34.4121 3.9189 36.8259 3.9189 36.8259C3.9189 36.8259 15.2295 47.0689 44.1171 47.5408C73.7243 48.0204 83.3483 38.203 85.0349 35.3405C86.1102 33.5225 86.969 29.956 86.2882 24.7571C85.1587 16.1697 75.2716 -0.123081 43.9779 0.000701291C12.6842 0.124483 3.34641 17.9104 2.71203 27.6815Z" fill="url(#paint0_radial_45_584)"/>
<path d="M32.4429 8.37863C32.6827 9.69381 26.7489 14.0726 25.8901 9.87175C25.0856 5.91846 32.2185 7.16402 32.4429 8.37863ZM34.5626 16.6179C34.8721 17.4302 40.9529 18.5984 40.303 15.1712C39.6222 11.6047 33.9282 14.9468 34.5626 16.6179ZM39.893 7.21044C40.0477 8.37863 47.1342 9.74023 46.9873 6.44453C46.8093 2.3752 39.7151 5.85657 39.893 7.21044ZM28.2033 19.3256C28.242 19.5886 26.5013 20.958 24.7219 21.4918C23.1592 21.9637 21.5578 21.7626 21.3798 19.8207C21.2096 17.9485 22.5403 17.2677 24.134 17.4302C25.9675 17.6081 28.1259 18.8227 28.2033 19.3256ZM42.9257 24.7952C42.6317 23.5652 35.9706 21.8554 36.4194 25.7468C36.8758 29.6227 43.2428 26.1027 42.9257 24.7952ZM49.1612 15.9371C48.8363 15.558 47.3122 15.6276 45.4555 16.115C44.1171 16.4709 43.1268 17.9795 44.0552 19.4107C45.1383 21.0818 46.9563 20.3778 48.1168 18.962C49.0606 17.817 49.5248 16.3626 49.1612 15.9371ZM56.2941 6.89324C56.0852 6.66889 54.5612 6.51416 53.3156 7.1176C52.0623 7.72104 50.9792 9.16001 52.1397 10.5061C53.3156 11.86 55.064 11.0786 55.8918 9.6474C56.5494 8.49468 56.6113 7.23364 56.2941 6.89324ZM61.0752 18.668C60.8741 17.407 55.2729 15.1634 55.3116 18.5984C55.3503 22.1184 61.2531 19.8053 61.0752 18.668ZM68.8193 12.448C68.6337 11.4809 61.5084 10.6995 62.7231 14.297C63.9841 18.0491 69.0437 13.6239 68.8193 12.448ZM59.0096 25.1047C59.056 24.0216 53.6328 21.5382 53.2305 24.7875C52.8282 28.0368 58.9477 26.5127 59.0096 25.1047Z" fill="#FDEAC8"/>
<defs>
<radialGradient id="paint0_radial_45_584" cx="0" cy="0" r="1" gradientUnits="userSpaceOnUse" gradientTransform="translate(44.26 9.2789) rotate(89.3583) scale(34.0713 59.3684)">
<stop offset="0.517" stop-color="#DF8016"/>
<stop offset="0.643" stop-color="#E58C21"/>
<stop offset="1" stop-color="#F5AC3C"/>
</radialGradient>
</defs>
</svg>
