<svg width="20" height="20" viewBox="0 0 14 17" fill="none" xmlns="http://www.w3.org/2000/svg">
<path d="M4.22501 0.689402L4.22492 0.689414C3.44815 0.796093 2.32562 1.09886 1.5495 1.96668L1.54948 1.96671C0.755298 2.85448 0.388249 4.25926 0.978531 6.42078L0.978549 6.42085C1.60977 8.73533 2.65054 10.9533 3.91187 12.7258C5.16874 14.4914 6.66755 15.8462 8.22939 16.3822C9.62624 16.861 10.6649 16.6549 11.4129 16.1501L4.22501 0.689402ZM4.22501 0.689402C4.97154 0.586532 5.6148 1.04139 5.92526 1.66195L6.76197 3.33494C7.18075 4.17251 6.944 5.16608 6.29674 5.79661C5.87794 6.20412 5.44406 6.68167 5.18739 7.1137L5.18731 7.11366M4.22501 0.689402L5.18731 7.11366M5.18731 7.11366L5.18436 7.11897M5.18731 7.11366L5.18436 7.11897M5.18436 7.11897C5.14444 7.19089 5.13161 7.27467 5.14809 7.35517C5.38299 8.6236 6.235 9.85641 6.97431 10.7228L6.97424 10.7228M5.18436 7.11897L6.97424 10.7228M6.97424 10.7228L6.97834 10.7273M6.97424 10.7228L6.97834 10.7273M6.97834 10.7273C7.04256 10.7983 7.12615 10.8488 7.21877 10.8727C7.31039 10.8964 7.40688 10.893 7.49657 10.863L9.14327 10.3485L9.14329 10.3484M6.97834 10.7273L9.14329 10.3484M9.14329 10.3484C9.54518 10.2228 9.97674 10.2293 10.3747 10.3668C10.7727 10.5043 11.1161 10.7657 11.3547 11.1126L12.5482 12.8487C12.8436 13.2785 12.9815 13.8442 12.7662 14.3776L12.7661 14.3776M9.14329 10.3484L12.7661 14.3776M12.7661 14.3776C12.5516 14.9091 12.1433 15.6568 11.4129 16.1501L12.7661 14.3776ZM5.36825 1.94009L5.36828 1.94015L6.20501 3.61319L6.20505 3.61327C6.48799 4.17964 6.34003 4.88533 5.8618 5.35087C5.43408 5.76748 4.95241 6.29087 4.65228 6.79518C4.53341 6.99677 4.49172 7.23465 4.53496 7.46466L4.53509 7.46536C4.79989 8.90122 5.74311 10.239 6.50084 11.1267C6.79422 11.4705 7.26123 11.5882 7.67963 11.4575C7.67964 11.4575 7.67965 11.4575 7.67966 11.4575L9.32861 10.9423L9.32863 10.9423C9.60361 10.8564 9.89888 10.8608 10.1711 10.955C10.4434 11.0491 10.6784 11.228 10.8416 11.4654L12.0351 13.2011C12.2451 13.5065 12.3064 13.8534 12.1888 14.1446C11.9951 14.6241 11.6468 15.2407 11.0643 15.6343L11.0642 15.6344C10.499 16.0155 9.66853 16.2179 8.43087 15.7935L8.43086 15.7935C7.04365 15.3177 5.63903 14.0798 4.41849 12.3648C3.20239 10.6564 2.19179 8.50576 1.5781 6.25707L1.57808 6.25702C1.02494 4.22812 1.4026 3.06455 2.01351 2.3813L5.36825 1.94009ZM5.36825 1.94009C5.14759 1.49926 4.7327 1.24708 4.30954 1.30516L4.30948 1.30516M5.36825 1.94009L4.30948 1.30516M4.30948 1.30516C3.58614 1.40467 2.64282 1.67732 2.01352 2.38128L4.30948 1.30516Z" fill="#73939C" stroke="#FEC20F" stroke-width="0.414838"/>
</svg>
