<svg width="19" height="14" viewBox="0 0 19 14" fill="none" xmlns="http://www.w3.org/2000/svg">
<path d="M17.6429 0.92627H1.35714C0.997206 0.92627 0.652012 1.06088 0.397498 1.30048C0.142984 1.54009 0 1.86506 0 2.20391L0 12.425C0 12.7639 0.142984 13.0889 0.397498 13.3285C0.652012 13.5681 0.997206 13.7027 1.35714 13.7027H17.6429C18.0028 13.7027 18.348 13.5681 18.6025 13.3285C18.857 13.0889 19 12.7639 19 12.425V2.20391C19 1.86506 18.857 1.54009 18.6025 1.30048C18.348 1.06088 18.0028 0.92627 17.6429 0.92627ZM17.6429 2.20391V4.12037H1.35714V2.20391H17.6429ZM17.6429 12.425H1.35714V5.39801H17.6429V12.425ZM16.2857 10.5086C16.2857 10.678 16.2142 10.8405 16.087 10.9603C15.9597 11.0801 15.7871 11.1474 15.6071 11.1474H12.8929C12.7129 11.1474 12.5403 11.0801 12.413 10.9603C12.2858 10.8405 12.2143 10.678 12.2143 10.5086C12.2143 10.3392 12.2858 10.1767 12.413 10.0569C12.5403 9.93706 12.7129 9.86976 12.8929 9.86976H15.6071C15.7871 9.86976 15.9597 9.93706 16.087 10.0569C16.2142 10.1767 16.2857 10.3392 16.2857 10.5086ZM10.8571 10.5086C10.8571 10.678 10.7857 10.8405 10.6584 10.9603C10.5311 11.0801 10.3585 11.1474 10.1786 11.1474H8.82143C8.64146 11.1474 8.46886 11.0801 8.34161 10.9603C8.21435 10.8405 8.14286 10.678 8.14286 10.5086C8.14286 10.3392 8.21435 10.1767 8.34161 10.0569C8.46886 9.93706 8.64146 9.86976 8.82143 9.86976H10.1786C10.3585 9.86976 10.5311 9.93706 10.6584 10.0569C10.7857 10.1767 10.8571 10.3392 10.8571 10.5086Z" fill="#FFBF00"/>
</svg>
