<svg width="15" height="15" viewBox="0 0 9 12" fill="none" xmlns="http://www.w3.org/2000/svg">
<path d="M0.495 9.2L3.075 5.435L0.72 1.91C0.57 1.685 0.465 1.445 0.465 1.16C0.465 0.514999 0.99 0.0049994 1.695 0.0049994C2.28 0.0049994 2.565 0.349999 2.715 0.605L4.5 3.68L6.405 0.605C6.66 0.2 6.87 0.0049994 7.41 0.0049994C8.01 0.0049994 8.595 0.335 8.595 1.115C8.595 1.325 8.49 1.61 8.37 1.775L5.865 5.435L8.31 9.11C8.565 9.5 8.715 9.695 8.715 9.98C8.715 10.775 8.145 11.195 7.455 11.195C7.05 11.195 6.705 11.105 6.42 10.625L4.44 7.31L2.31 10.715C2.1 11.06 1.725 11.195 1.35 11.195C0.63 11.195 0.165 10.745 0.165 10.145C0.165 9.89 0.21 9.62 0.495 9.2Z" fill="#FFBF00"/>
</svg>
