<svg width="20" height="20" viewBox="0 0 13 13" fill="none" xmlns="http://www.w3.org/2000/svg">
<path fill-rule="evenodd" clip-rule="evenodd" d="M5.04002 0H7.29336C7.43803 0 7.56403 7.69896e-08 7.6827 0.0186668C7.91384 0.0556957 8.13311 0.146308 8.32296 0.283255C8.51281 0.420202 8.66797 0.599683 8.77603 0.807336C8.83203 0.914003 8.87137 1.03334 8.91737 1.17L8.99137 1.39334C9.04242 1.57478 9.15348 1.73356 9.30641 1.84374C9.45933 1.95393 9.6451 2.00901 9.83337 2.00001H11.8334C11.966 2.00001 12.0932 2.05269 12.1869 2.14645C12.2807 2.24022 12.3334 2.3674 12.3334 2.50001C12.3334 2.63262 12.2807 2.7598 12.1869 2.85356C12.0932 2.94733 11.966 3.00001 11.8334 3.00001H0.500002C0.367393 3.00001 0.240216 2.94733 0.146447 2.85356C0.0526786 2.7598 0 2.63262 0 2.50001C0 2.3674 0.0526786 2.24022 0.146447 2.14645C0.240216 2.05269 0.367393 2.00001 0.500002 2.00001H2.56001C2.73808 1.99574 2.9101 1.93452 3.05083 1.82534C3.19157 1.71616 3.29362 1.56476 3.34201 1.39334L3.41668 1.17C3.46201 1.03334 3.50135 0.914003 3.55668 0.807336C3.66481 0.599601 3.82008 0.42007 4.01005 0.283118C4.20002 0.146166 4.41942 0.0555983 4.65068 0.0186668C4.76935 7.69896e-08 4.89535 0 5.03935 0M4.17135 2.00001C4.21816 1.90833 4.25719 1.81288 4.28802 1.71467L4.35468 1.51467C4.41535 1.33267 4.42935 1.296 4.44335 1.26934C4.47934 1.20001 4.53107 1.14008 4.5944 1.09435C4.65773 1.04862 4.73089 1.01836 4.80802 1.006C4.89493 0.998664 4.9822 0.99666 5.06935 1H7.26269C7.4547 1 7.4947 1.00134 7.52403 1.00667C7.6011 1.01896 7.67422 1.04911 7.73754 1.09472C7.80086 1.14033 7.85263 1.20013 7.8887 1.26934C7.9027 1.296 7.9167 1.33267 7.97736 1.51534L8.04403 1.71534L8.07003 1.79001C8.09603 1.86334 8.1267 1.93267 8.1607 2.00001H4.17135Z" fill="#FF3838"/>
<path d="M2.11006 4.13329C2.10122 4.00094 2.04017 3.87753 1.94034 3.7902C1.84051 3.70287 1.71007 3.65878 1.57773 3.66762C1.44538 3.67646 1.32197 3.73751 1.23464 3.83734C1.14731 3.93717 1.10322 4.06761 1.11206 4.19995L1.42139 8.83464C1.47806 9.68931 1.52406 10.38 1.63206 10.9226C1.74473 11.486 1.9354 11.9566 2.33006 12.3253C2.72407 12.6947 3.20673 12.854 3.77674 12.928C4.32474 13 5.01674 13 5.87408 13H6.46008C7.31675 13 8.00942 13 8.55742 12.928C9.12676 12.854 9.60943 12.6947 10.0041 12.3253C10.3981 11.9566 10.5888 11.4853 10.7014 10.9226C10.8094 10.3806 10.8548 9.68931 10.9121 8.83464L11.2214 4.19995C11.2303 4.06761 11.1862 3.93717 11.0988 3.83734C11.0115 3.73751 10.8881 3.67646 10.7558 3.66762C10.6234 3.65878 10.493 3.70287 10.3932 3.7902C10.2933 3.87753 10.2323 4.00094 10.2234 4.13329L9.91676 8.7333C9.85676 9.63131 9.81409 10.2566 9.72076 10.7266C9.62943 11.1833 9.50276 11.4246 9.32076 11.5953C9.13809 11.766 8.88876 11.8766 8.42742 11.9366C7.95209 11.9986 7.32542 12 6.42475 12H5.90874C5.00874 12 4.38207 11.9986 3.90607 11.9366C3.44474 11.8766 3.1954 11.766 3.01273 11.5953C2.83073 11.4246 2.70407 11.1833 2.61273 10.7273C2.5194 10.2566 2.47673 9.63131 2.41673 8.73264L2.11006 4.13329Z" fill="#FF3838"/>
<path d="M4.45001 5.33599C4.5819 5.32277 4.71365 5.36247 4.81628 5.44635C4.91892 5.53024 4.98405 5.65144 4.99735 5.78332L5.33068 9.11667C5.34045 9.24673 5.29901 9.37545 5.2152 9.47538C5.1314 9.57532 5.01187 9.63855 4.8821 9.6516C4.75233 9.66464 4.6226 9.62647 4.52058 9.54522C4.41857 9.46397 4.35233 9.34607 4.33601 9.21667L4.00268 5.88333C3.98946 5.75143 4.02916 5.61969 4.11304 5.51705C4.19692 5.41442 4.31813 5.34929 4.45001 5.33599ZM7.88336 5.33599C8.01511 5.3493 8.13621 5.41433 8.22008 5.51682C8.30394 5.6193 8.34372 5.75087 8.33069 5.88266L7.99736 9.216C7.98083 9.34515 7.91457 9.46276 7.81267 9.54382C7.71077 9.62488 7.58128 9.66299 7.45172 9.65005C7.32216 9.63711 7.20275 9.57414 7.1189 9.47454C7.03504 9.37493 6.99335 9.24654 7.00269 9.11667L7.33602 5.78332C7.34933 5.65157 7.41436 5.53047 7.51685 5.44661C7.61934 5.36274 7.75157 5.32296 7.88336 5.33599Z" fill="#FF3838"/>
</svg>
