<svg width="14" height="17" viewBox="0 0 14 17" fill="none" xmlns="http://www.w3.org/2000/svg">
<path d="M9.1875 13.6C9.55208 13.6 9.86212 13.4762 10.1176 13.2285C10.3731 12.9809 10.5006 12.6797 10.5 12.325C10.4994 11.9703 10.372 11.6694 10.1176 11.4223C9.86329 11.1752 9.55325 11.0511 9.1875 11.05C8.82175 11.0489 8.512 11.173 8.25825 11.4223C8.0045 11.6716 7.87675 11.9725 7.875 12.325C7.87325 12.6775 8.001 12.9787 8.25825 13.2285C8.5155 13.4784 8.82525 13.6023 9.1875 13.6ZM4.76875 13.5575L10.4563 8.0325L9.23125 6.8425L3.54375 12.3675L4.76875 13.5575ZM4.8125 9.35C5.17708 9.35 5.48712 9.22618 5.74262 8.97855C5.99812 8.73092 6.12558 8.42973 6.125 8.075C6.12442 7.72027 5.99696 7.41937 5.74262 7.1723C5.48829 6.92523 5.17825 6.80113 4.8125 6.8C4.44675 6.79887 4.137 6.92297 3.88325 7.1723C3.6295 7.42163 3.50175 7.72253 3.5 8.075C3.49825 8.42747 3.626 8.72865 3.88325 8.97855C4.1405 9.22845 4.45025 9.35227 4.8125 9.35ZM7 17C5.00208 17 3.33608 16.3342 2.002 15.0025C0.667917 13.6708 0.000583333 12.0133 0 10.03C0 8.61333 0.579833 7.07285 1.7395 5.40855C2.89917 3.74425 4.65267 1.9414 7 0C9.34792 1.94083 11.1017 3.74368 12.2614 5.40855C13.421 7.07342 14.0006 8.6139 14 10.03C14 12.0133 13.333 13.6708 11.9989 15.0025C10.6648 16.3342 8.9985 17 7 17ZM7 15.3C8.51667 15.3 9.77083 14.8005 10.7625 13.8014C11.7542 12.8024 12.25 11.5453 12.25 10.03C12.25 8.99583 11.8087 7.82708 10.9261 6.52375C10.0435 5.22042 8.73483 3.79667 7 2.2525C5.26458 3.79667 3.95587 5.22042 3.07387 6.52375C2.19187 7.82708 1.75058 8.99583 1.75 10.03C1.75 11.5458 2.24583 12.8033 3.2375 13.8023C4.22917 14.8013 5.48333 15.3006 7 15.3Z" fill="#151A20"/>
</svg>
