<svg width="17" height="10" viewBox="0 0 17 10" fill="none" xmlns="http://www.w3.org/2000/svg">
<path d="M1 5.8C3.88 -0.6 12.52 -0.6 15.4 5.8" stroke="#FF3838" stroke-width="1.5" stroke-linecap="round" stroke-linejoin="round"/>
<path d="M8.19999 8.99995C7.88482 8.99995 7.57273 8.93787 7.28155 8.81726C6.99037 8.69665 6.72579 8.51987 6.50293 8.29701C6.28007 8.07415 6.10329 7.80957 5.98268 7.51839C5.86207 7.22721 5.79999 6.91512 5.79999 6.59995C5.79999 6.28478 5.86207 5.97269 5.98268 5.68151C6.10329 5.39033 6.28007 5.12576 6.50293 4.90289C6.72579 4.68003 6.99037 4.50325 7.28155 4.38264C7.57273 4.26203 7.88482 4.19995 8.19999 4.19995C8.83651 4.19995 9.44696 4.45281 9.89704 4.90289C10.3471 5.35298 10.6 5.96343 10.6 6.59995C10.6 7.23647 10.3471 7.84692 9.89704 8.29701C9.44696 8.7471 8.83651 8.99995 8.19999 8.99995Z" stroke="#FF3838" stroke-width="1.5" stroke-linecap="round" stroke-linejoin="round"/>
</svg>

