<svg width="135" height="150" viewBox="0 0 78 64" fill="none" xmlns="http://www.w3.org/2000/svg">
<path d="M32.3437 29.6124L30.9691 26.627L27.6059 13.5522L26.7507 11.5165L27.9837 8.48393C27.9837 8.48393 29.7309 8.73053 31.0635 10.2363C32.6848 12.0727 35.3291 17.566 35.3291 17.566L34.7729 13.2322L37.7898 5.40936C37.7898 5.40936 39.112 5.2677 39.4635 5.62973C40.0878 6.26982 41.1529 10.761 41.5307 12.1829C41.9085 13.6047 42.4331 15.546 43.0942 16.396C43.7553 17.2459 44.5633 17.4401 44.5633 17.4401L46.9295 8.3003L47.4962 0.0105072C47.4962 0.0105072 48.3252 0.00526048 49.4847 0.246609C50.3609 0.430243 50.9485 0.729305 51.2318 1.08083C51.5152 1.43236 51.5257 7.0201 51.5257 7.0201C51.5257 7.0201 56.5258 2.75978 56.6884 2.807C57.0347 2.90144 58.1103 3.13754 58.6769 3.75665C59.2436 4.37052 58.7714 6.64759 58.3464 8.16388C57.9214 9.68018 56.4523 14.6068 56.4523 14.6068L57.7797 14.1031L58.0735 14.3865L60.5447 10.5931C60.5447 10.5931 61.4367 10.5879 62.1607 10.9446C62.9477 11.3329 63.4199 12.2878 63.4199 12.2878L69.7684 3.10081C69.7684 3.10081 70.2511 3.53104 70.6761 3.95603C71.1011 4.38101 71.4002 4.68007 71.4212 5.1103C71.4421 5.53528 69.9101 8.36326 69.2018 9.78511C68.4935 11.207 67.3077 14.0507 67.3077 14.0507L72.4705 10.1104C72.4705 10.1104 74.1809 10.3518 74.2334 10.9184C74.2806 11.485 73.3729 12.5344 72.4705 14.0979C71.5681 15.6614 70.057 18.694 69.5323 19.7329C69.0077 20.7717 69.7212 20.8242 69.7212 20.8242L75.9071 16.9154C75.9071 16.9154 77.2397 17.1882 77.3657 17.8073C77.5073 18.5156 75.9753 19.927 74.9784 21.0603C73.9815 22.1988 71.8514 24.9428 70.7653 27.0782C69.6792 29.2137 68.95 30.5463 68.95 30.5463L59.5321 39.8907L34.4739 38.3744L32.3437 29.6124Z" fill="url(#paint0_radial_35_54)"/>
<path d="M63.6716 19.2974C63.042 19.4443 61.0535 22.8861 59.1962 28.1223C58.0786 31.2703 57.3388 34.7122 57.3808 36.3597C57.4228 38.0071 59.9097 37.5034 59.9097 37.5034L60.9643 34.0826C60.9643 34.0826 62.1448 30.0689 63.5404 27.073C65.1722 23.5577 67.2866 21.3226 67.1292 20.7822C66.9193 20.0581 64.5583 19.0875 63.6716 19.2974ZM69.9204 10.3465C69.039 10.8607 67.0505 14.1871 66.4576 15.4568C65.8647 16.7265 65.8437 19.1137 66.4943 19.4233C67.2971 19.8011 68.189 17.1043 69.5427 14.8639C70.8963 12.6236 72.4966 10.0894 72.4966 10.0894C72.4966 10.0894 70.933 9.75362 69.9204 10.3465ZM73.2573 16.9364C71.9089 17.5082 69.3958 20.1893 68.5248 21.5377C66.9193 24.0299 65.7388 26.8159 65.3138 27.9544C64.8941 29.093 64.5531 30.6565 65.8647 29.9377C67.1764 29.2189 68.8606 25.84 71.017 22.8022C73.5144 19.2764 75.9174 16.8891 75.9174 16.8891C75.9174 16.8891 74.3539 16.4694 73.2573 16.9364ZM67.5961 1.89931C67.0767 1.83635 65.6549 5.61397 64.8521 7.42933C64.0494 9.24469 62.979 11.6477 62.979 11.6477C62.979 11.6477 62.3599 16.4274 63.2466 16.5114C64.1333 16.5953 65.87 10.7662 67.1659 8.09566C68.4304 5.4933 69.763 3.08506 69.763 3.08506C69.763 3.08506 68.6088 2.02523 67.5961 1.89931ZM58.257 11.3644C57.7901 11.8575 58.0524 14.397 58.0524 14.397C58.0524 14.397 59.8677 15.7506 60.2088 15.4515C60.5498 15.1525 60.5656 10.5669 60.5656 10.5669C60.5656 10.5669 59.0178 10.5616 58.257 11.3644ZM54.5056 14.8219C53.8498 15.3728 54.2958 17.9542 54.1279 20.268C53.876 23.7308 52.8634 30.8244 52.5643 32.8968C52.2653 34.9693 51.9715 37.2463 51.9715 37.2463L55.2244 36.7374C55.2244 36.7374 56.4889 27.0677 56.9978 23.3478C57.5067 19.6279 58.2623 14.355 57.7586 14.0559C57.2496 13.7673 55.3084 14.1451 54.5056 14.8219ZM54.1121 2.48694C53.2831 2.64434 51.5307 7.02009 51.5307 7.02009C51.5307 7.02009 51.4258 10.1786 51.4258 11.7001C51.4258 13.2217 51.132 15.0371 51.6357 15.0371C52.1394 15.0371 53.1152 12.1251 54.1279 9.59097C55.1405 7.05682 56.6935 2.80699 56.6935 2.80699C56.6935 2.80699 55.2874 2.26658 54.1121 2.48694ZM44.5789 0.886693C44.007 1.49006 44.9146 3.04309 44.9986 7.30341C45.0825 11.569 44.5579 17.4348 44.5579 17.4348C44.5579 17.4348 45.0091 17.4033 45.2924 18.2795C45.5338 19.0193 45.9273 23.5157 46.4309 23.3478C46.9399 23.1799 47.5695 20.1788 48.0784 15.1105C48.5873 10.0422 48.3722 6.11766 48.2043 4.51216C48.0364 2.90667 47.4908 0 47.4908 0C47.4908 0 45.4236 0 44.5789 0.886693ZM37.7896 5.40935C37.7896 5.40935 35.3499 5.58249 34.6783 6.89417C34.0015 8.20584 34.2166 8.84069 34.3425 10.1052C34.4685 11.3696 34.8672 13.8933 34.8672 13.8933C34.8672 13.8933 37.1076 16.6793 38.33 16.0024C39.5525 15.3309 37.7896 5.40935 37.7896 5.40935ZM27.9835 8.48392C27.9835 8.48392 26.6299 8.23208 25.8271 8.39997C25.0244 8.56787 25.0664 9.32864 25.4494 9.83757C25.8271 10.3465 27.5743 13.505 27.5743 13.505C27.5743 13.505 28.0937 13.5155 28.7705 13.7673C29.4474 14.0192 30.6069 14.6488 30.5597 13.6362C30.4757 11.868 27.9835 8.48392 27.9835 8.48392ZM31.7979 28.4266C31.7979 28.4266 29.248 23.2691 27.3487 20.4359C25.4494 17.6027 23.4609 15.4096 23.4609 14.9479C23.4609 14.4809 24.7726 14.0192 25.5281 13.8093C26.2836 13.5995 27.6005 13.5522 27.6005 13.5522C27.6005 13.5522 30.7223 18.8304 31.992 21.7056C33.2617 24.5808 34.4422 27.9282 34.1484 28.3374C33.8808 28.7047 31.9868 28.4581 31.7979 28.4266ZM33.5136 19.2134C33.3142 19.9532 34.2743 23.3111 34.8672 25.7193C35.4601 28.1276 36.1789 30.6617 36.1789 30.6617L38.2041 34.8014L40.4445 33.9986C40.4445 33.9986 39.2639 31.7163 38.5871 29.3553C37.9103 26.9838 37.0341 19.6279 36.1317 18.6678C35.5021 17.9909 33.6447 18.7517 33.5136 19.2134ZM40.5284 18.3687C39.9985 18.715 40.8222 24.3237 41.2472 26.648C41.6722 28.9723 42.5589 31.4225 43.0206 32.561C43.4875 33.6996 44.8359 36.5748 44.8359 36.5748C44.8359 36.5748 46.2316 38.2222 46.2735 38.0543C46.3155 37.8864 46.9084 35.814 46.9084 35.814C46.9084 35.814 45.0458 30.3207 44.7467 27.9544C44.4529 25.5882 43.986 18.4107 43.5243 18.1588C43.0626 17.907 41.3731 17.8231 40.5284 18.3687ZM49.9462 18.4946C49.3114 19.0823 48.6818 26.8579 48.4247 29.7278C48.1676 32.5978 47.9577 36.8214 47.9577 36.8214L50.7857 36.6115C50.7857 36.6115 51.8403 26.181 52.0082 24.8274C52.1761 23.4737 52.9369 20.3939 52.5591 19.1662C52.1813 17.949 50.4919 17.9909 49.9462 18.4946Z" fill="#FBDE93"/>
<path d="M30.9586 29.387C30.7802 29.791 36.2945 59.9648 36.3837 60.416C36.4729 60.8672 36.2945 61.2765 37.1497 61.6805C38.0102 62.0845 39.3533 62.2996 40.2138 62.394C41.0742 62.4832 46.9978 62.4937 47.045 61.7749C47.0922 61.0509 64.7998 35.2581 64.7998 35.2581C64.7998 35.2581 68.0633 29.7858 67.8377 29.3346C67.612 28.8833 66.7306 29.0932 65.7705 29.749C64.8103 30.4101 63.9236 32.0419 61.2268 33.852C58.3044 35.8142 54.4323 36.2287 50.5393 36.1815C46.9505 36.1343 42.685 35.4837 39.6314 33.2224C36.9451 31.2286 36.1528 29.791 33.7603 29.1562C31.6511 28.5948 30.9586 29.387 30.9586 29.387Z" fill="#FD703F"/>
<path d="M35.1298 31.36L40.1352 62.4047C40.1352 62.4047 46.1007 63.2652 50.7493 63.3544C55.4031 63.4436 60.9488 62.4729 60.9488 62.4729L64.9783 48.8525L68.3992 30.8825C68.3992 30.8825 67.5544 30.0378 66.6048 30.7356C65.8755 31.2708 63.6247 34.7546 59.6477 36.2919C55.1617 38.0233 47.0766 38.1492 42.0292 36.0191C37.4016 34.0725 35.9903 31.5384 35.1298 31.36Z" fill="#FF2A23"/>
<path d="M63.8503 61.5176C62.8324 62.1262 60.4609 62.5355 60.4609 62.5355C60.4609 62.5355 62.8115 51.1081 64.1179 45.1426C65.4243 39.1771 67.3079 29.0877 67.3079 29.0877C67.3079 29.0877 68.0634 28.9671 68.8399 29.0615C69.7214 29.1717 70.246 29.4288 70.4244 29.7068C70.713 30.1581 68.9763 38.5843 67.2764 46.8111C65.7234 54.3663 64.3907 61.1976 63.8503 61.5176Z" fill="#DC0D25"/>
<path d="M2.88779 50.9062C2.88779 50.9062 2.51667 53.334 3.37875 55.4756C4.09779 57.2694 5.96113 59.6314 9.52543 61.4329C13.0897 63.2344 17.1837 63.8684 23.226 63.9921C29.2683 64.1197 35.4768 62.7086 38.4574 60.0915C41.4418 57.4704 42.4856 55.2669 42.4005 52.8739C42.3155 50.481 41.0436 49.5725 41.0436 49.5725L2.88779 50.9062Z" fill="#FCB745"/>
<path d="M4.61581 48.4668L2.85299 50.2296C2.85299 50.2296 2.37362 52.5878 5.03332 55.1392C7.04742 57.0683 10.6117 60.42 22.4489 60.5089C33.5284 60.5939 37.0115 58.1585 39.1494 56.4382C41.291 54.7179 42.0951 51.7296 41.8825 50.8907C41.6737 50.0518 41.0166 49.5686 41.0166 49.5686L4.61581 48.4668Z" fill="#E78B20"/>
<path d="M5.36963 50.9836C5.36963 50.9836 4.87093 51.8302 5.0333 52.3675C5.16087 52.7889 5.41215 54.5092 10.4029 56.6895C13.0433 57.8454 17.5354 58.7887 23.369 58.6186C30.2888 58.4176 35.8324 57.0259 38.5153 54.5053C41.2639 51.9268 40.7382 50.3921 40.7382 50.3921L5.36963 50.9836Z" fill="#FFD290"/>
<path d="M3.94312 45.1072C3.94312 45.1072 2.28854 46.7927 2.01407 47.5427C1.75506 48.2501 1.78985 49.2784 2.24602 50.1096C2.86069 51.2229 3.62612 51.3389 4.57325 51.9072C5.5977 52.518 7.21749 54.4238 11.2032 55.2627C15.1888 56.1016 20.4348 56.4805 23.2453 56.4805C26.0557 56.4805 29.7901 56.438 33.2732 55.2627C36.7564 54.0875 40.7421 51.7796 41.666 49.723C42.5899 47.6664 41.7085 46.4486 41.7085 46.4486L39.6944 45.1072H3.94312Z" fill="#6D544D"/>
<path d="M2.97666 42.9697C2.97666 42.9697 1.6932 42.9117 1.38394 44.8562C1.15972 46.2711 2.1803 47.1641 2.1803 47.1641C2.1803 47.1641 1.63908 47.9411 2.26535 48.9269C2.85295 49.8509 3.48309 50.0596 4.78201 50.2684C5.71754 50.4191 6.2085 50.1408 7.42624 50.8135C8.95325 51.6562 9.60658 53.1639 11.7057 53.6239C13.8049 54.084 16.1553 53.6664 16.2365 53.3301C16.3177 52.9938 13.2985 51.7374 7.84375 48.6718C6.00361 47.6396 4.31811 46.2363 3.85807 45.525C3.39804 44.8137 2.97666 42.9697 2.97666 42.9697ZM29.3726 53.2064C29.3726 53.7515 31.178 53.5002 32.0168 53.0402C32.8557 52.5801 34.1972 51.4049 35.4149 50.8985C36.6327 50.3959 37.0927 50.856 38.8555 50.0171C40.6183 49.1782 41.5848 47.2066 41.5848 47.2066C41.5848 47.2066 42.443 46.1474 42.5126 45.4051C42.6208 44.2725 42.5087 43.7235 41.7124 43.4722C40.916 43.2209 39.1802 45.8304 38.929 46.1242C38.6777 46.418 34.9588 49.1357 33.4897 50.1833C32.0207 51.231 29.3726 52.9126 29.3726 53.2064Z" fill="#9B7169"/>
<path d="M4.61579 41.543C4.61579 41.543 2.51664 41.7943 2.22283 42.6757C1.92903 43.5571 2.85296 44.856 5.28458 46.4952C7.27935 47.8366 14.1142 51.0646 16.8241 52.7462C19.9284 54.6753 22.5571 57.3698 22.994 57.4046C23.5391 57.4471 27.3237 53.4266 32.5619 49.8932C37.5411 46.53 40.9547 45.6988 42.1724 43.2208C42.8257 41.8909 41.2485 41.1216 41.2485 41.1216L21.0224 33.4441L4.61579 41.543Z" fill="#FFE869"/>
<path d="M23.2452 55.1394C23.8715 55.0698 27.1459 51.9076 31.0079 49.4759C34.8698 47.0443 40.5758 44.4388 41.4147 42.9736C42.2536 41.5085 40.2395 40.5381 40.2395 40.5381L16.739 36.595L2.97665 42.0071C2.97665 42.0071 2.22281 42.2584 2.72537 42.8886C3.22793 43.5187 4.02429 44.5663 5.78711 45.6565C7.92879 46.9825 13.426 49.1821 16.9053 51.0687C20.3923 52.9552 22.4914 55.2206 23.2452 55.1394Z" fill="#FFBE01"/>
<path d="M4.87097 42.6332L5.60162 44.5893C5.60162 44.5893 10.8592 49.8894 21.3163 50.0981C31.7231 50.3069 37.5566 45.3547 37.5566 45.3547L38.8865 42.0146L4.87097 42.6332Z" fill="#F4482B"/>
<path d="M18.5792 45.8652L17.7557 47.1834C17.7557 47.1834 19.5147 48.2388 20.0211 48.4205C20.7479 48.6795 21.4631 48.5867 22.5339 48.2543C23.6048 47.9257 28.0505 46.1551 28.0505 46.1551C28.0505 46.1551 31.7269 46.2092 34.0348 46.2518C36.0798 46.2904 38.1287 45.5559 39.1996 44.3188C40.2704 43.0818 41.9327 40.4298 41.9327 40.4298C41.9327 40.4298 42.7987 40.2249 43.3747 39.5639C43.9507 38.9028 43.9932 38.3268 43.9932 38.3268C43.9932 38.3268 43.827 37.2134 43.2123 36.9273C42.5938 36.6374 15.0458 34.9519 15.0458 34.9519L4.00882 35.7753L2.14935 39.6064L8.28444 44.8369L16.9323 45.3317L18.5792 45.8652Z" fill="#A6B732"/>
<path d="M2.72537 36.2315C2.10297 35.9492 1.44964 35.984 1.1597 36.8075C0.869765 37.6309 0.958679 37.9943 0.958679 37.9943C0.958679 37.9943 0.11206 38.1721 0.00768255 39.2352C-0.116024 40.5109 1.28341 40.9632 1.28341 40.9632C1.28341 40.9632 1.34913 41.4581 1.90194 41.9529C2.53208 42.5173 3.16221 42.4593 3.16221 42.4593C3.16221 42.4593 4.82452 44.0946 5.93788 44.7518C7.05124 45.409 8.65557 45.8651 10.2638 45.8226C11.8719 45.7801 12.4054 45.0417 13.6 45.4515C14.7945 45.8613 17.9606 47.5274 19.2364 47.5545C21.2543 47.597 25.6189 44.4657 26.6085 44.5082C27.5982 44.5507 32.0864 45.2505 34.4755 45.2505C36.8646 45.2505 37.7305 44.5507 38.264 43.851C38.7975 43.1513 39.706 41.3808 39.416 41.3382C39.1261 41.2957 37.2318 42.8614 35.8749 42.7377C34.5142 42.614 33.3235 41.8331 31.6341 41.8331C29.9447 41.8331 21.7105 42.9039 21.1732 43.1513C20.6358 43.3987 18.3318 45.1693 17.8795 45.0881C17.4272 45.0069 15.8615 43.6887 15.328 43.3987C14.7945 43.1088 9.17745 42.9232 8.36949 43.0701C7.78962 43.1745 6.97006 43.3175 6.97006 43.3175C6.97006 43.3175 7.05124 42.0418 6.35153 41.2996C5.65181 40.5573 3.3439 39.2816 3.3439 39.2816C3.3439 39.2816 3.62997 36.6412 2.72537 36.2315ZM39.2498 38.4543C39.2498 38.4543 41.7626 38.4543 42.4623 38.4118C43.162 38.3693 43.9855 38.3306 43.9855 38.3306C43.9855 38.3306 43.7458 37.1902 43.3824 36.5832C42.6402 35.3384 40.8541 34.9944 40.8541 34.9944L39.2498 38.4543Z" fill="#C2DD1F"/>
<path d="M2.14935 34.7084L1.87488 35.9223C1.87488 35.9223 5.675 42.6527 22.7543 42.9079C32.7513 43.0586 38.496 40.024 41.032 37.5421C42.5512 36.0537 42.6015 34.6079 42.6015 34.6079L2.14935 34.7084Z" fill="#DE8010"/>
<path d="M1.28348 31.3606C1.067 34.7239 1.88655 35.9301 1.88655 35.9301C1.88655 35.9301 7.53841 41.0484 21.9735 41.2843C36.768 41.5239 41.5771 36.6182 42.4199 35.1878C42.9572 34.2794 43.3863 32.4972 43.0461 29.8994C42.4817 25.6083 37.5412 17.4668 21.9039 17.5287C6.26655 17.5905 1.60048 26.4781 1.28348 31.3606Z" fill="url(#paint1_radial_35_54)"/>
<path d="M16.1399 21.7151C16.2597 22.3723 13.2946 24.5604 12.8655 22.4612C12.4635 20.4858 16.0278 21.1082 16.1399 21.7151ZM17.1991 25.8322C17.3537 26.2382 20.3923 26.8219 20.0676 25.1093C19.7274 23.3272 16.8821 24.9972 17.1991 25.8322ZM19.8627 21.1314C19.94 21.7151 23.4811 22.3955 23.4076 20.7487C23.3187 18.7152 19.7738 20.4549 19.8627 21.1314ZM14.0214 27.1853C14.0407 27.3167 13.1709 28.001 12.2818 28.2677C11.5009 28.5035 10.7006 28.403 10.6117 27.4327C10.5267 26.4972 11.1916 26.157 11.988 26.2382C12.9042 26.3271 13.9827 26.934 14.0214 27.1853ZM21.3781 29.9184C21.2312 29.3038 17.9027 28.4494 18.1269 30.3939C18.355 32.3307 21.5366 30.5718 21.3781 29.9184ZM24.494 25.492C24.3316 25.3026 23.57 25.3374 22.6422 25.581C21.9734 25.7588 21.4786 26.5126 21.9425 27.2278C22.4837 28.0628 23.3922 27.711 23.9721 27.0036C24.4437 26.4314 24.6756 25.7047 24.494 25.492ZM28.0583 20.9729C27.9539 20.8608 27.1923 20.7835 26.5699 21.085C25.9436 21.3865 25.4024 22.1056 25.9823 22.7782C26.5699 23.4548 27.4436 23.0643 27.8572 22.3491C28.1858 21.7731 28.2168 21.143 28.0583 20.9729ZM30.4473 26.8567C30.3468 26.2266 27.548 25.1055 27.5673 26.8219C27.5866 28.5809 30.5363 27.425 30.4473 26.8567ZM34.317 23.7486C34.2243 23.2653 30.6638 22.8749 31.2708 24.6725C31.9009 26.5474 34.4292 24.3362 34.317 23.7486ZM29.4152 30.0731C29.4384 29.5318 26.7284 28.2909 26.5274 29.9146C26.3264 31.5382 29.3842 30.7766 29.4152 30.0731Z" fill="#FDEAC8"/>
<defs>
<radialGradient id="paint0_radial_35_54" cx="0" cy="0" r="1" gradientUnits="userSpaceOnUse" gradientTransform="translate(50.7738 -5.92456) scale(43.6148 43.6148)">
<stop offset="0.447" stop-color="#FCC216"/>
<stop offset="0.59" stop-color="#FABB16"/>
<stop offset="0.794" stop-color="#F3A814"/>
<stop offset="0.921" stop-color="#ED9913"/>
</radialGradient>
<radialGradient id="paint1_radial_35_54" cx="0" cy="0" r="1" gradientUnits="userSpaceOnUse" gradientTransform="translate(22.0448 22.165) rotate(89.3583) scale(17.0253 29.6661)">
<stop offset="0.517" stop-color="#DF8016"/>
<stop offset="0.643" stop-color="#E58C21"/>
<stop offset="1" stop-color="#F5AC3C"/>
</radialGradient>
</defs>
</svg>
