<svg width="20" height="20" viewBox="0 0 11 10" fill="none" xmlns="http://www.w3.org/2000/svg">
<path d="M9.59933 2.8005H7.84545C7.86495 2.784 7.88495 2.768 7.90395 2.75051C8.05579 2.6156 8.17817 2.45082 8.26342 2.26647C8.34867 2.08211 8.39497 1.88215 8.39941 1.67908C8.40598 1.45693 8.36708 1.23579 8.28509 1.02922C8.20309 0.822652 8.07975 0.635022 7.92262 0.477847C7.76549 0.320673 7.5779 0.197272 7.37136 0.11522C7.16481 0.0331682 6.94368 -0.00580339 6.72153 0.000698022C6.51838 0.00507364 6.31832 0.0513369 6.13387 0.136592C5.94943 0.221847 5.78456 0.344258 5.64961 0.496163C5.4629 0.712625 5.31109 0.956875 5.19964 1.22011C5.08819 0.956875 4.93638 0.712625 4.74967 0.496163C4.61471 0.344258 4.44985 0.221847 4.2654 0.136592C4.08095 0.0513369 3.88089 0.00507364 3.67774 0.000698022C3.45559 -0.00580339 3.23446 0.0331682 3.02792 0.11522C2.82137 0.197272 2.63378 0.320673 2.47665 0.477847C2.31952 0.635022 2.19618 0.822652 2.11419 1.02922C2.0322 1.23579 1.99329 1.45693 1.99986 1.67908C2.0043 1.88215 2.0506 2.08211 2.13585 2.26647C2.22111 2.45082 2.34348 2.6156 2.49533 2.75051C2.51432 2.767 2.53432 2.783 2.55382 2.8005H0.799944C0.587786 2.8005 0.384317 2.88478 0.234298 3.0348C0.0842796 3.18482 0 3.38829 0 3.60045V5.20034C0 5.41249 0.0842796 5.61596 0.234298 5.76598C0.384317 5.916 0.587786 6.00028 0.799944 6.00028V9.20006C0.799944 9.41221 0.884224 9.61568 1.03424 9.7657C1.18426 9.91572 1.38773 10 1.59989 10H8.79939C9.01154 10 9.21501 9.91572 9.36503 9.7657C9.51505 9.61568 9.59933 9.41221 9.59933 9.20006V6.00028C9.81149 6.00028 10.015 5.916 10.165 5.76598C10.315 5.61596 10.3993 5.41249 10.3993 5.20034V3.60045C10.3993 3.38829 10.315 3.18482 10.165 3.0348C10.015 2.88478 9.81149 2.8005 9.59933 2.8005ZM6.24956 1.02613C6.31291 0.956215 6.39002 0.900145 6.47605 0.86143C6.56209 0.822714 6.65519 0.80219 6.74953 0.801142H6.77403C6.8846 0.801833 6.99393 0.824588 7.0956 0.868073C7.19727 0.911558 7.28924 0.974898 7.36611 1.05438C7.44299 1.13387 7.50323 1.22789 7.5433 1.33096C7.58337 1.43402 7.60247 1.54404 7.59947 1.65458C7.59842 1.74892 7.5779 1.84202 7.53918 1.92806C7.50047 2.01409 7.4444 2.0912 7.37449 2.15455C6.90002 2.57452 6.11257 2.72251 5.62461 2.7745C5.6846 2.24504 5.84959 1.47559 6.24956 1.02613ZM3.04529 1.04413C3.20025 0.889181 3.41011 0.801677 3.62925 0.800642H3.65374C3.74808 0.80169 3.84119 0.822214 3.92722 0.860929C4.01325 0.899645 4.09036 0.955715 4.15371 1.02563C4.57318 1.49959 4.72117 2.28554 4.77317 2.7715C4.2872 2.72151 3.50126 2.57152 3.02729 2.15205C2.95738 2.0887 2.90131 2.01159 2.86259 1.92556C2.82388 1.83952 2.80335 1.74642 2.8023 1.65208C2.7992 1.53971 2.81897 1.42787 2.86039 1.32337C2.90181 1.21886 2.96404 1.12386 3.04329 1.04413H3.04529ZM0.799944 3.60045H4.79966V5.20034H0.799944V3.60045ZM1.59989 6.00028H4.79966V9.20006H1.59989V6.00028ZM8.79939 9.20006H5.59961V6.00028H8.79939V9.20006ZM9.59933 5.20034H5.59961V3.60045H9.59933V5.20034Z" fill="#898989"/>
</svg>
