<svg width="20" height="20" viewBox="0 0 12 11" fill="none" xmlns="http://www.w3.org/2000/svg">
<path d="M1 5.69037C1 8.40438 3.2385 10.6044 6 10.6044C8.7615 10.6044 11 8.40438 11 5.69037C11 2.97637 8.7615 0.776367 6 0.776367C3.2385 0.776367 1 2.97637 1 5.69037Z" stroke="#898989" stroke-width="0.75" stroke-linecap="round" stroke-linejoin="round"/>
<path d="M6.49994 0.800781C6.49994 0.800781 7.99994 2.74181 7.99994 5.69022C7.99994 8.63862 6.49994 10.5797 6.49994 10.5797M5.49994 10.5797C5.49994 10.5797 3.99994 8.63862 3.99994 5.69022C3.99994 2.74181 5.49994 0.800781 5.49994 0.800781M1.31494 7.41012H10.6849M1.31494 3.97031H10.6849" stroke="#898989" stroke-width="0.75" stroke-linecap="round" stroke-linejoin="round"/>
</svg>
