<svg width="24" height="24" viewBox="0 0 18 15" fill="none" xmlns="http://www.w3.org/2000/svg">
<path d="M12.9545 0C11.2543 0 9.77582 0.755486 8.90625 2.02154C8.03668 0.755486 6.55824 0 4.85795 0C3.57001 0.00147795 2.33524 0.506254 1.42452 1.4036C0.5138 2.30094 0.00149998 3.51757 0 4.78661C0 7.11609 1.47358 9.5405 4.38026 11.9912C5.71219 13.1095 7.15093 14.098 8.67631 14.943C8.747 14.9804 8.826 15 8.90625 15C8.9865 15 9.0655 14.9804 9.13619 14.943C10.6616 14.098 12.1003 13.1095 13.4322 11.9912C16.3389 9.5405 17.8125 7.11609 17.8125 4.78661C17.811 3.51757 17.2987 2.30094 16.388 1.4036C15.4773 0.506254 14.2425 0.00147795 12.9545 0ZM8.90625 13.9697C7.5776 13.2142 0.971591 9.23177 0.971591 4.78661C0.972663 3.77134 1.38246 2.79796 2.11106 2.08006C2.83967 1.36216 3.82756 0.958377 4.85795 0.957321C6.49994 0.957321 7.87879 1.8213 8.45689 3.21261C8.49349 3.3004 8.55575 3.37549 8.63576 3.42833C8.71578 3.48118 8.80993 3.50939 8.90625 3.50939C9.00257 3.50939 9.09672 3.48118 9.17674 3.42833C9.25675 3.37549 9.31901 3.3004 9.35561 3.21261C9.93371 1.8213 11.3126 0.957321 12.9545 0.957321C13.9849 0.958377 14.9728 1.36216 15.7014 2.08006C16.43 2.79796 16.8398 3.77134 16.8409 4.78661C16.8409 9.23177 10.2349 13.2142 8.90625 13.9697Z" fill="white"/>
</svg>
