<svg width="19" height="19" viewBox="0 0 15 13" fill="none" xmlns="http://www.w3.org/2000/svg">
<path d="M10.395 0.466187C9.05374 0.466187 7.88747 1.06215 7.2015 2.06089C6.51554 1.06215 5.34927 0.466187 4.00799 0.466187C2.99199 0.467352 2.01794 0.865547 1.29952 1.57342C0.581094 2.28129 0.176965 3.24103 0.175781 4.24211C0.175781 6.07973 1.33822 7.99224 3.63116 9.92551C4.68186 10.8077 5.81681 11.5875 7.02011 12.254C7.07588 12.2835 7.1382 12.299 7.2015 12.299C7.26481 12.299 7.32713 12.2835 7.38289 12.254C8.58619 11.5875 9.72114 10.8077 10.7718 9.92551C13.0648 7.99224 14.2272 6.07973 14.2272 4.24211C14.226 3.24103 13.8219 2.28129 13.1035 1.57342C12.3851 0.865547 11.411 0.467352 10.395 0.466187ZM7.2015 11.4862C6.15339 10.8903 0.942223 7.74869 0.942223 4.24211C0.943069 3.44122 1.26634 2.67337 1.8411 2.10705C2.41586 1.54073 3.19516 1.2222 4.00799 1.22137C5.30328 1.22137 6.39099 1.90293 6.84702 3.00046C6.87589 3.06972 6.92501 3.12895 6.98813 3.17064C7.05125 3.21233 7.12552 3.23458 7.2015 3.23458C7.27749 3.23458 7.35176 3.21233 7.41488 3.17064C7.47799 3.12895 7.52711 3.06972 7.55598 3.00046C8.01201 1.90293 9.09972 1.22137 10.395 1.22137C11.2078 1.2222 11.9871 1.54073 12.5619 2.10705C13.1367 2.67337 13.4599 3.44122 13.4608 4.24211C13.4608 7.74869 8.24961 10.8903 7.2015 11.4862Z" fill="#FFBF00"/>
</svg>
