<svg width="20" height="20" viewBox="0 0 11 12" fill="none" xmlns="http://www.w3.org/2000/svg">
<path d="M5.25 11.0543C2.355 11.0543 0 8.73978 0 5.89457C0 3.04936 2.355 0.734863 5.25 0.734863C8.145 0.734863 10.5 3.04936 10.5 5.89457C10.5 8.73978 8.145 11.0543 5.25 11.0543ZM5.25 1.47196C2.7675 1.47196 0.75 3.45476 0.75 5.89457C0.75 8.33437 2.7675 10.3172 5.25 10.3172C7.7325 10.3172 9.75 8.33437 9.75 5.89457C9.75 3.45476 7.7325 1.47196 5.25 1.47196Z" fill="#898989"/>
<path d="M5.25006 3.31494C4.41756 3.31494 3.75006 3.97096 3.75006 4.78914H4.50006C4.50006 4.38374 4.83756 4.05204 5.25006 4.05204C5.66256 4.05204 6.00006 4.38374 6.00006 4.78914C6.00006 5.52624 4.87506 5.43779 4.87506 6.6319H5.62506C5.62506 5.80634 6.75006 5.71052 6.75006 4.78914C6.75006 3.97096 6.08256 3.31494 5.25006 3.31494Z" fill="#898989"/>
<path d="M5.25003 8.56293C5.50685 8.56293 5.71503 8.35832 5.71503 8.10593C5.71503 7.85353 5.50685 7.64893 5.25003 7.64893C4.99322 7.64893 4.78503 7.85353 4.78503 8.10593C4.78503 8.35832 4.99322 8.56293 5.25003 8.56293Z" fill="#898989"/>
<path d="M4.12506 5.1612C4.33217 5.1612 4.50006 4.99537 4.50006 4.7908C4.50006 4.58624 4.33217 4.42041 4.12506 4.42041C3.91795 4.42041 3.75006 4.58624 3.75006 4.7908C3.75006 4.99537 3.91795 5.1612 4.12506 5.1612Z" fill="#898989"/>
<path d="M5.24982 7.00397C5.45692 7.00397 5.62482 6.83814 5.62482 6.63358C5.62482 6.42901 5.45692 6.26318 5.24982 6.26318C5.04271 6.26318 4.87482 6.42901 4.87482 6.63358C4.87482 6.83814 5.04271 7.00397 5.24982 7.00397Z" fill="#898989"/>
</svg>
