<svg width="24" height="23" viewBox="0 0 24 23" fill="none" xmlns="http://www.w3.org/2000/svg">
<path d="M11.0718 17.4049C11.0718 17.6116 11.1539 17.8098 11.3001 17.9559C11.4462 18.1021 11.6444 18.1842 11.8511 18.1842C12.0578 18.1842 12.256 18.1021 12.4022 17.9559C12.5483 17.8098 12.6304 17.6116 12.6304 17.4049V14.2876C12.6304 14.0809 12.5483 13.8827 12.4022 13.7366C12.256 13.5904 12.0578 13.5083 11.8511 13.5083C11.6444 13.5083 11.4462 13.5904 11.3001 13.7366C11.1539 13.8827 11.0718 14.0809 11.0718 14.2876V17.4049Z" fill="#898989"/>
<path fill-rule="evenodd" clip-rule="evenodd" d="M11.8511 0C11.1154 0 10.4473 0.210935 9.72099 0.563187C9.02064 0.904008 8.21015 1.40693 7.19912 2.03454L5.05132 3.36769C4.09536 3.96205 3.32747 4.43795 2.73727 4.88996C2.12524 5.35755 1.65557 5.83553 1.31579 6.45586C0.977049 7.07412 0.825342 7.7329 0.751566 8.51118C0.680908 9.26452 0.680908 10.1872 0.680908 11.3437V13.0198C0.680908 14.9982 0.680908 16.56 0.839889 17.7809C1.00199 19.033 1.34489 20.044 2.11797 20.8431C2.89417 21.6463 3.8813 22.0058 5.10535 22.1752C6.28991 22.3404 7.80491 22.3404 9.71268 22.3404H13.9896C15.8973 22.3404 17.4123 22.3404 18.5969 22.1752C19.8199 22.0058 20.8081 21.6463 21.5853 20.8431C22.3574 20.044 22.7003 19.033 22.8634 17.7809C23.0213 16.56 23.0213 14.9982 23.0213 13.0198V11.3437C23.0213 10.1872 23.0213 9.26556 22.9507 8.51118C22.8779 7.73187 22.7252 7.07412 22.3864 6.45586C22.0467 5.83553 21.576 5.35858 20.965 4.88996C20.3748 4.43691 19.6079 3.96205 18.6509 3.36769L16.5031 2.03454C15.4921 1.40693 14.6816 0.904008 13.9802 0.563187C13.256 0.209896 12.5878 0 11.8511 0ZM7.98571 3.3812C9.04038 2.72657 9.78333 2.26729 10.4037 1.96492C11.0074 1.67086 11.4355 1.55863 11.8511 1.55863C12.2668 1.55863 12.6949 1.67086 13.2986 1.96492C13.9199 2.26625 14.6619 2.72657 15.7165 3.3812L17.7947 4.67071C18.7933 5.29104 19.4947 5.72642 20.0184 6.12751C20.5265 6.51717 20.8185 6.83825 21.019 7.20401C21.2196 7.57081 21.337 7.99995 21.3983 8.65666C21.4617 9.32999 21.4627 10.1789 21.4627 11.3822V12.9626C21.4627 15.0096 21.4606 16.4706 21.3172 17.5793C21.1759 18.6683 20.9089 19.3 20.4652 19.7604C20.0236 20.2165 19.423 20.4877 18.3828 20.6322C17.3167 20.7797 15.9108 20.7818 13.9293 20.7818H9.77294C7.79036 20.7818 6.38551 20.7797 5.3194 20.6322C4.27928 20.4867 3.67868 20.2165 3.23811 19.7593C2.79338 19.3001 2.52633 18.6683 2.38605 17.5793C2.24058 16.4706 2.23954 15.0107 2.23954 12.9626V11.3822C2.23954 10.1789 2.23954 9.32999 2.30397 8.65666C2.36527 7.99995 2.48269 7.57081 2.68323 7.20401C2.88378 6.83825 3.17576 6.51717 3.68492 6.12751C4.20758 5.72642 4.90896 5.29104 5.90753 4.67071L7.98571 3.3812Z" fill="#898989"/>
</svg>
