<svg width="14" height="18" viewBox="0 0 10 14" fill="none" xmlns="http://www.w3.org/2000/svg">
<path d="M4.92267 1C2.62929 1 0.768616 2.77095 0.768616 4.95212C0.768616 7.46186 3.53798 11.4391 4.55486 12.8128C4.59707 12.8708 4.65239 12.918 4.71632 12.9505C4.78024 12.983 4.85094 13 4.92267 13C4.99439 13 5.0651 12.983 5.12902 12.9505C5.19294 12.918 5.24827 12.8708 5.29048 12.8128C6.30735 11.4397 9.07672 7.46388 9.07672 4.95212C9.07672 2.77095 7.21605 1 4.92267 1Z" stroke="#FFBF00" stroke-linecap="round" stroke-linejoin="round"/>
<path d="M4.92271 5.61556C5.68745 5.61556 6.30739 4.99562 6.30739 4.23088C6.30739 3.46614 5.68745 2.84619 4.92271 2.84619C4.15797 2.84619 3.53802 3.46614 3.53802 4.23088C3.53802 4.99562 4.15797 5.61556 4.92271 5.61556Z" stroke="#FFBF00" stroke-linecap="round" stroke-linejoin="round"/>
</svg>
