<svg width="38" height="54" viewBox="0 0 54 54" fill="none" xmlns="http://www.w3.org/2000/svg">
<path d="M44.6572 30.5714V27C44.6572 26.0528 44.2809 25.1444 43.6111 24.4746C42.9414 23.8048 42.033 23.4286 41.0858 23.4286H5.37148C4.42428 23.4286 3.51587 23.8048 2.8461 24.4746C2.17632 25.1444 1.80005 26.0528 1.80005 27V48.4286C1.80005 49.3758 2.17632 50.2842 2.8461 50.954C3.51587 51.6237 4.42428 52 5.37148 52H41.0858C42.033 52 42.9414 51.6237 43.6111 50.954C44.2809 50.2842 44.6572 49.3758 44.6572 48.4286V44.8571M44.6572 30.5714H30.3715C28.4771 30.5714 26.6603 31.324 25.3207 32.6635C23.9812 34.0031 23.2286 35.8199 23.2286 37.7143C23.2286 39.6087 23.9812 41.4255 25.3207 42.765C26.6603 44.1046 28.4771 44.8571 30.3715 44.8571H44.6572M44.6572 30.5714C46.5516 30.5714 48.3684 31.324 49.708 32.6635C51.0475 34.0031 51.8 35.8199 51.8 37.7143C51.8 39.6087 51.0475 41.4255 49.708 42.765C48.3684 44.1046 46.5516 44.8571 44.6572 44.8571M12.5143 23.4286V12.7143C12.5143 9.87268 13.6432 7.14746 15.6525 5.13814C17.6618 3.12882 20.387 2 23.2286 2C26.0702 2 28.7954 3.12882 30.8048 5.13814C32.8141 7.14746 33.9429 9.87268 33.9429 12.7143V23.4286M42.8715 37.7143H46.4429M35.7286 37.7143H39.3M28.5858 37.7143H32.1572" stroke="#FEC20F" stroke-width="3"/>
</svg>
