<svg width="14" height="17" viewBox="0 0 14 17" fill="none" xmlns="http://www.w3.org/2000/svg">
<path d="M8.86825 11.1252H8.875M5.125 11.1252H5.13175M1.201 13.6339C1.36975 14.8864 2.407 15.8682 3.67 15.9259C4.732 15.9747 5.81125 16.0002 7 16.0002C8.18875 16.0002 9.268 15.9747 10.33 15.9252C11.593 15.8682 12.6302 14.8864 12.799 13.6339C12.9092 12.8164 13 11.9787 13 11.1252C13 10.2717 12.9092 9.43391 12.799 8.61641C12.6302 7.36391 11.593 6.38216 10.33 6.32441C9.22073 6.27372 8.11043 6.24896 7 6.25016C5.81125 6.25016 4.732 6.27566 3.67 6.32516C2.407 6.38216 1.36975 7.36391 1.201 8.61641C1.09 9.43391 1 10.2717 1 11.1252C1 11.9787 1.09075 12.8164 1.201 13.6339Z" stroke="#898989" stroke-linecap="round" stroke-linejoin="round"/>
<path d="M3.625 6.25V4.375C3.625 3.47989 3.98058 2.62145 4.61351 1.98851C5.24645 1.35558 6.10489 1 7 1C7.89511 1 8.75355 1.35558 9.38648 1.98851C10.0194 2.62145 10.375 3.47989 10.375 4.375V6.25" stroke="#898989" stroke-linecap="round" stroke-linejoin="round"/>
</svg>
