<svg width="20" height="20" viewBox="0 0 17 16" fill="none" xmlns="http://www.w3.org/2000/svg">
<path d="M5.20612 5.10443H11.8435M5.20612 8.42313H10.1842M13.5029 0.956055C14.163 0.956055 14.7961 1.21829 15.2629 1.68507C15.7297 2.15186 15.9919 2.78495 15.9919 3.44508V10.0825C15.9919 10.7426 15.7297 11.3757 15.2629 11.8425C14.7961 12.3093 14.163 12.5715 13.5029 12.5715H9.35449L5.20612 15.0605V12.5715H3.54676C2.88663 12.5715 2.25354 12.3093 1.78676 11.8425C1.31998 11.3757 1.05774 10.7426 1.05774 10.0825V3.44508C1.05774 2.78495 1.31998 2.15186 1.78676 1.68507C2.25354 1.21829 2.88663 0.956055 3.54676 0.956055H13.5029Z" stroke="#FEC20F" stroke-width="1.24451" stroke-linecap="round" stroke-linejoin="round"/>
</svg>
