<svg width="27" height="24" viewBox="0 0 27 24" fill="none" xmlns="http://www.w3.org/2000/svg">
<path d="M2.03151 21.0131C3.68151 23 6.75051 23 12.8913 23H13.8813C20.022 23 23.0924 23 24.7424 21.0131M2.03151 21.0131C0.381513 19.0249 0.948013 16.0081 2.07964 9.97187C2.88401 5.68187 3.28551 3.5355 4.81314 2.26775M24.7424 21.0131C26.3924 19.0249 25.8259 16.0081 24.6943 9.97187C23.8899 5.68187 23.487 3.5355 21.9594 2.26775M21.9594 2.26775C20.4331 1 18.2483 1 13.8826 1H12.8899C8.52426 1 6.34076 1 4.81314 2.26775" stroke="#FEC20F" stroke-width="1.25"/>
<path d="M9.495 6.5C9.77907 7.30511 10.3059 8.00228 11.0028 8.49542C11.6998 8.98855 12.5325 9.25337 13.3862 9.25337C14.24 9.25337 15.0727 8.98855 15.7697 8.49542C16.4666 8.00228 16.9934 7.30511 17.2775 6.5" stroke="#FEC20F" stroke-width="1.25" stroke-linecap="round"/>
</svg>
