<svg width="20" height="20" viewBox="0 0 10 11" fill="none" xmlns="http://www.w3.org/2000/svg">
<path d="M0 1.82129C0 1.48977 0.131696 1.17183 0.366117 0.937406C0.600537 0.702985 0.918479 0.571289 1.25 0.571289H6.47727C6.64143 0.571289 6.80397 0.603621 6.95563 0.66644C7.10728 0.729258 7.24508 0.821332 7.36116 0.937406C7.47723 1.05348 7.5693 1.19128 7.63212 1.34293C7.69494 1.49459 7.72727 1.65714 7.72727 1.82129V6.93493H10V8.86674C10 9.31882 9.82042 9.75238 9.50075 10.072C9.18109 10.3917 8.74753 10.5713 8.29545 10.5713H1.70455C1.25247 10.5713 0.818914 10.3917 0.49925 10.072C0.179586 9.75238 0 9.31882 0 8.86674V1.82129ZM7.72727 9.88947H8.29545C8.5667 9.88947 8.82683 9.78172 9.01863 9.58992C9.21043 9.39812 9.31818 9.13799 9.31818 8.86674V7.61674H7.72727V9.88947ZM1.25 1.25311C0.936364 1.25311 0.681818 1.50765 0.681818 1.82129V8.86674C0.681818 9.13799 0.78957 9.39812 0.981368 9.58992C1.17317 9.78172 1.4333 9.88947 1.70455 9.88947H7.04545V1.82129C7.04545 1.50765 6.79091 1.25311 6.47727 1.25311H1.25ZM2.15909 2.84402C2.06868 2.84402 1.98196 2.87993 1.91803 2.94387C1.8541 3.0078 1.81818 3.09451 1.81818 3.18493C1.81818 3.27534 1.8541 3.36205 1.91803 3.42598C1.98196 3.48992 2.06868 3.52583 2.15909 3.52583H5.56818C5.6586 3.52583 5.74531 3.48992 5.80924 3.42598C5.87317 3.36205 5.90909 3.27534 5.90909 3.18493C5.90909 3.09451 5.87317 3.0078 5.80924 2.94387C5.74531 2.87993 5.6586 2.84402 5.56818 2.84402H2.15909ZM1.81818 5.45765C1.81818 5.36724 1.8541 5.28053 1.91803 5.21659C1.98196 5.15266 2.06868 5.11674 2.15909 5.11674H5.56818C5.6586 5.11674 5.74531 5.15266 5.80924 5.21659C5.87317 5.28053 5.90909 5.36724 5.90909 5.45765C5.90909 5.54807 5.87317 5.63478 5.80924 5.69871C5.74531 5.76264 5.6586 5.79856 5.56818 5.79856H2.15909C2.06868 5.79856 1.98196 5.76264 1.91803 5.69871C1.8541 5.63478 1.81818 5.54807 1.81818 5.45765ZM2.15909 7.38947C2.06868 7.38947 1.98196 7.42539 1.91803 7.48932C1.8541 7.55325 1.81818 7.63997 1.81818 7.73038C1.81818 7.8208 1.8541 7.90751 1.91803 7.97144C1.98196 8.03537 2.06868 8.07129 2.15909 8.07129H3.75C3.84041 8.07129 3.92713 8.03537 3.99106 7.97144C4.05499 7.90751 4.09091 7.8208 4.09091 7.73038C4.09091 7.63997 4.05499 7.55325 3.99106 7.48932C3.92713 7.42539 3.84041 7.38947 3.75 7.38947H2.15909Z" fill="#898989"/>
</svg>
