<svg width="31" height="32" viewBox="0 0 31 32" fill="none" xmlns="http://www.w3.org/2000/svg">
<path d="M5.72471 10.0946C5.992 7.72458 7.1393 5.53468 8.94698 3.94412C10.7547 2.35357 13.0957 1.47412 15.522 1.47412C17.9483 1.47412 20.2893 2.35357 22.097 3.94412C23.9047 5.53468 25.052 7.72458 25.3193 10.0946L25.764 14.0245L25.7746 14.1234C26.0024 16.0728 26.6484 17.9525 27.6698 19.6384L27.7227 19.7251L28.7409 21.3953C29.6674 22.911 30.1297 23.6689 30.0291 24.2915C29.9627 24.7048 29.7465 25.0805 29.4203 25.3495C28.928 25.7553 28.028 25.7553 26.2298 25.7553H4.81416C3.01422 25.7553 2.11426 25.7553 1.62369 25.3512C1.29653 25.0821 1.07962 24.7057 1.01312 24.2915C0.9143 23.6689 1.37664 22.911 2.30131 21.3953L3.32304 19.7234L3.37598 19.6367C4.39657 17.9511 5.04191 16.072 5.26944 14.1234L5.28002 14.0245L5.72471 10.0946Z" stroke="#FEC20F" stroke-width="1.25"/>
<path d="M10.4083 26.4595C10.71 27.7498 11.3753 28.8909 12.3 29.7026C13.2246 30.5177 14.3575 30.9582 15.5222 30.9582C16.6869 30.9582 17.8198 30.5177 18.7444 29.7043C19.6691 28.8892 20.3326 27.7498 20.6361 26.4595" stroke="#FEC20F" stroke-width="1.25" stroke-linecap="round"/>
</svg>
