<svg width="40" height="44" viewBox="0 0 54 44" fill="none" xmlns="http://www.w3.org/2000/svg">
<path d="M2 22C2 12.5725 2 7.8575 4.93 4.93C7.8575 2 12.5725 2 22 2H32C41.4275 2 46.1425 2 49.07 4.93C52 7.8575 52 12.5725 52 22C52 31.4275 52 36.1425 49.07 39.07C46.1425 42 41.4275 42 32 42H22C12.5725 42 7.8575 42 4.93 39.07C2 36.1425 2 31.4275 2 22Z" stroke="#FEC20F" stroke-width="3"/>
<path d="M27 17V27M22.67 19.5L31.33 24.5M31.33 19.5L22.67 24.5M13.8325 17V27M9.5 19.5L18.16 24.5M18.16 19.5L9.5 24.5M40.17 17V27M35.84 19.5L44.5 24.5M44.5 19.5L35.8375 24.5" stroke="#FEC20F" stroke-width="3" stroke-linecap="round"/>
</svg>
