<svg width="15" height="15" viewBox="0 0 15 15" fill="none" xmlns="http://www.w3.org/2000/svg">
<path d="M14.2146 0.785311C13.7112 0.282454 13.0287 0 12.3171 0C11.6055 0 10.923 0.282454 10.4195 0.785311L1.45531 9.74901C1.15045 10.0535 0.936225 10.4368 0.836539 10.856L0.0152671 14.3074C-0.00696979 14.4008 -0.00488492 14.4985 0.0213229 14.5909C0.0475308 14.6834 0.0969878 14.7676 0.164977 14.8355C0.232966 14.9034 0.317221 14.9527 0.409705 14.9788C0.502189 15.005 0.59982 15.0069 0.693285 14.9846L4.14413 14.1626C4.56361 14.0631 4.94716 13.8488 5.25191 13.5439L14.2146 4.58168C14.7175 4.07825 15 3.3958 15 2.68425C15 1.9727 14.7175 1.29024 14.2146 0.786811M11.2146 1.58178C11.3593 1.43701 11.5312 1.32216 11.7204 1.24381C11.9096 1.16546 12.1123 1.12513 12.3171 1.12513C12.5219 1.12513 12.7246 1.16546 12.9138 1.24381C13.1029 1.32216 13.2748 1.43701 13.4196 1.58178C13.5644 1.72656 13.6793 1.89844 13.7576 2.0876C13.836 2.27676 13.8763 2.4795 13.8763 2.68425C13.8763 2.88899 13.836 3.09174 13.7576 3.2809C13.6793 3.47006 13.5644 3.64193 13.4196 3.78671L12.7506 4.45344L10.5455 2.24926L11.2146 1.58178ZM9.75052 3.04574L11.9556 5.24916L4.45538 12.7489C4.29788 12.9064 4.09987 13.0167 3.88312 13.0684L1.32105 13.6789L1.93082 11.117C1.98257 10.8995 2.09357 10.7015 2.25108 10.544L9.75052 3.04574Z" fill="#FFBF00"/>
</svg>
