<svg width="30" height="30" viewBox="0 0 22 22" fill="none" xmlns="http://www.w3.org/2000/svg">
<path d="M9.34472 1.74001C9.55313 1.50725 9.80827 1.32107 10.0935 1.1936C10.3787 1.06613 10.6876 1.00024 11.0001 1.00024C11.3125 1.00024 11.6214 1.06613 11.9066 1.1936C12.1919 1.32107 12.447 1.50725 12.6554 1.74001L13.4331 2.60878C13.6553 2.85708 13.9306 3.0522 14.2385 3.17971C14.5464 3.30721 14.879 3.36382 15.2117 3.34536L16.3783 3.28092C16.6903 3.26372 17.0024 3.31253 17.2943 3.42415C17.5861 3.53577 17.8512 3.7077 18.0721 3.92872C18.293 4.14973 18.4648 4.41485 18.5763 4.70677C18.6878 4.99869 18.7364 5.31084 18.7191 5.62284L18.6546 6.78825C18.6363 7.1208 18.693 7.45321 18.8205 7.76089C18.948 8.06857 19.1431 8.34366 19.3912 8.5658L20.26 9.34348C20.4929 9.55189 20.6793 9.8071 20.8069 10.0924C20.9344 10.3778 21.0004 10.6868 21.0004 10.9994C21.0004 11.3119 20.9344 11.621 20.8069 11.9063C20.6793 12.1917 20.4929 12.4469 20.26 12.6553L19.3912 13.433C19.1429 13.6552 18.9478 13.9305 18.8203 14.2384C18.6928 14.5463 18.6362 14.8789 18.6546 15.2116L18.7191 16.3781C18.7363 16.6901 18.6875 17.0023 18.5758 17.2941C18.4642 17.586 18.2923 17.851 18.0713 18.072C17.8503 18.2929 17.5851 18.4647 17.2932 18.5762C17.0013 18.6876 16.6892 18.7363 16.3772 18.7189L15.2117 18.6545C14.8792 18.6362 14.5468 18.6929 14.2391 18.8204C13.9314 18.9479 13.6563 19.1429 13.4342 19.3911L12.6565 20.2599C12.4481 20.4928 12.1929 20.6791 11.9076 20.8067C11.6222 20.9343 11.3132 21.0002 11.0006 21.0002C10.6881 21.0002 10.379 20.9343 10.0937 20.8067C9.80834 20.6791 9.55313 20.4928 9.34472 20.2599L8.56704 19.3911C8.34478 19.1428 8.06951 18.9477 7.76163 18.8202C7.45374 18.6927 7.12111 18.636 6.78838 18.6545L5.62186 18.7189C5.30985 18.7361 4.99772 18.6873 4.70586 18.5757C4.41399 18.4641 4.14895 18.2922 3.92804 18.0712C3.70714 17.8501 3.53533 17.585 3.42385 17.2931C3.31236 17.0012 3.2637 16.689 3.28105 16.377L3.34549 15.2116C3.36378 14.8791 3.30709 14.5467 3.17959 14.239C3.0521 13.9313 2.85706 13.6562 2.60892 13.4341L1.74014 12.6564C1.5072 12.448 1.32086 12.1928 1.19328 11.9074C1.0657 11.6221 0.999756 11.313 0.999756 11.0005C0.999756 10.6879 1.0657 10.3789 1.19328 10.0935C1.32086 9.80821 1.5072 9.553 1.74014 9.34459L2.60892 8.56691C2.85721 8.34465 3.05234 8.06938 3.17984 7.76149C3.30734 7.45361 3.36395 7.12098 3.34549 6.78825L3.28105 5.62173C3.26401 5.30981 3.31294 4.99781 3.42464 4.70607C3.53633 4.41434 3.70829 4.14944 3.92928 3.92865C4.15028 3.70787 4.41534 3.53616 4.70718 3.42475C4.99902 3.31333 5.31107 3.2647 5.62297 3.28203L6.78838 3.34647C7.12093 3.36476 7.45334 3.30807 7.76102 3.18057C8.0687 3.05307 8.34379 2.85804 8.56593 2.6099L9.34472 1.74001Z" stroke="#FEC20F" stroke-width="1.5"/>
<path d="M8.22266 8.22266H8.23377V8.23377H8.22266V8.22266ZM13.7775 13.7775H13.7886V13.7886H13.7775V13.7775Z" stroke="#FEC20F" stroke-width="2.25" stroke-linejoin="round"/>
<path d="M14.3329 7.66724L7.66711 14.3331" stroke="#FEC20F" stroke-width="1.5" stroke-linecap="round" stroke-linejoin="round"/>
</svg>
