<svg width="20" height="20" viewBox="0 0 12 12" fill="none" xmlns="http://www.w3.org/2000/svg">
<path d="M1 9.96091C1 9.30927 1.26339 8.68432 1.73223 8.22355C2.20107 7.76277 2.83696 7.50391 3.5 7.50391H8.5C9.16304 7.50391 9.79893 7.76277 10.2678 8.22355C10.7366 8.68432 11 9.30927 11 9.96091C11 10.2867 10.8683 10.5992 10.6339 10.8296C10.3995 11.06 10.0815 11.1894 9.75 11.1894H2.25C1.91848 11.1894 1.60054 11.06 1.36612 10.8296C1.1317 10.5992 1 10.2867 1 9.96091Z" stroke="#898989" stroke-width="0.75" stroke-linejoin="round"/>
<path d="M6 5.04683C7.03553 5.04683 7.875 4.2218 7.875 3.20408C7.875 2.18636 7.03553 1.36133 6 1.36133C4.96447 1.36133 4.125 2.18636 4.125 3.20408C4.125 4.2218 4.96447 5.04683 6 5.04683Z" stroke="#898989" stroke-width="0.75"/>
</svg>
