<svg width="16" height="12" viewBox="0 0 9 7" fill="none" xmlns="http://www.w3.org/2000/svg">
<path d="M0.833359 3.11667C0.62165 3.11667 0.450025 3.28829 0.450025 3.5C0.450025 3.71171 0.62165 3.88333 0.833359 3.88333V3.11667ZM8.77108 3.77106C8.92078 3.62136 8.92078 3.37864 8.77108 3.22894L6.33156 0.789424C6.18186 0.639723 5.93915 0.639723 5.78945 0.789424C5.63975 0.939125 5.63975 1.18184 5.78945 1.33154L7.95791 3.5L5.78945 5.66846C5.63975 5.81816 5.63975 6.06087 5.78945 6.21058C5.93915 6.36028 6.18186 6.36028 6.33156 6.21058L8.77108 3.77106ZM0.833359 3.88333H8.50003V3.11667H0.833359V3.88333Z" fill="#FFBF00"/>
</svg>
