<svg width="19" height="19" viewBox="0 0 17 15" fill="none" xmlns="http://www.w3.org/2000/svg">
<path d="M16.2395 6.93472L10.3231 1.01832C10.2611 0.956342 10.182 0.914144 10.096 0.897055C10.01 0.879966 9.92082 0.888752 9.83979 0.922305C9.75875 0.955858 9.68948 1.01267 9.64072 1.08557C9.59196 1.15847 9.56589 1.24418 9.56581 1.33189V4.45279C5.53675 4.71829 0.662374 8.52031 0.104753 13.3762C0.0866432 13.5308 0.11779 13.6872 0.193757 13.8231C0.269724 13.959 0.386636 14.0674 0.527838 14.133C0.66904 14.1986 0.82733 14.2179 0.98016 14.1882C1.13299 14.1586 1.27256 14.0814 1.379 13.9678C2.21173 13.0796 5.20247 10.2509 9.56581 10.0682V13.1647C9.56589 13.2524 9.59196 13.3381 9.64072 13.411C9.68948 13.4839 9.75875 13.5407 9.83979 13.5743C9.92082 13.6078 10.01 13.6166 10.096 13.5995C10.182 13.5824 10.2611 13.5402 10.3231 13.4783L16.2395 7.56185C16.3226 7.47866 16.3693 7.36587 16.3693 7.24829C16.3693 7.1307 16.3226 7.01792 16.2395 6.93472ZM10.4533 12.0938V9.61484C10.4533 9.49716 10.4065 9.3843 10.3233 9.30108C10.2401 9.21786 10.1272 9.17111 10.0095 9.17111C7.95877 9.17111 5.95977 9.70729 4.06948 10.7648C2.96773 11.3838 1.95286 12.146 1.05138 13.0316C1.39897 11.0673 2.54231 9.18591 4.3054 7.68684C6.05073 6.20848 8.18211 5.32546 10.0095 5.32546C10.1272 5.32546 10.2401 5.27871 10.3233 5.19549C10.4065 5.11228 10.4533 4.99941 10.4533 4.88173V2.4035L15.2981 7.24829L10.4533 12.0938Z" fill="#FFBF00"/>
</svg>
