<svg width="33" height="50" viewBox="0 0 49 54" fill="none" xmlns="http://www.w3.org/2000/svg">
<path d="M2 23.0425C2 15.0475 2 11.05 2.945 9.705C3.8875 8.3625 7.645 7.075 15.1625 4.5025L16.595 4.0125C20.5125 2.67 22.47 2 24.5 2C26.5275 2 28.4875 2.67 32.405 4.0125L33.8375 4.5025C41.355 7.075 45.1125 8.3625 46.055 9.705C47 11.05 47 15.05 47 23.0425V26.9775C47 41.0725 36.4025 47.915 29.7525 50.8175C27.95 51.605 27.05 52 24.5 52C21.95 52 21.05 51.605 19.2475 50.8175C12.5975 47.9125 2 41.075 2 26.9775V23.0425Z" stroke="#FEC20F" stroke-width="3"/>
<path d="M23.25 37H25.75C26.4131 37 27.049 36.7366 27.5178 36.2678C27.9866 35.7989 28.25 35.1631 28.25 34.5V30.9975C29.6829 30.1738 30.8035 28.8997 31.4375 27.3733C32.0714 25.8469 32.1832 24.1538 31.7555 22.5573C31.3278 20.9608 30.3845 19.5504 29.0724 18.5454C27.7603 17.5403 26.1528 16.9971 24.5 17C22.8483 16.9991 21.2425 17.5435 19.9318 18.5487C18.6211 19.5539 17.6789 20.9637 17.2515 22.5592C16.8241 24.1546 16.9353 25.8466 17.5679 27.3724C18.2005 28.8982 19.3191 30.1725 20.75 30.9975V34.5C20.75 35.1631 21.0134 35.7989 21.4823 36.2678C21.9511 36.7366 22.587 37 23.25 37Z" stroke="#FEC20F" stroke-width="3" stroke-linejoin="round"/>
</svg>
