<svg width="40" height="40" viewBox="0 0 38 31" fill="none" xmlns="http://www.w3.org/2000/svg">
<path d="M13.2572 5.66014L9.57922 14.8818L11.5556 14.795L14.6741 5.58838L13.2572 5.66014Z" fill="#DB874D"/>
<path d="M9.84814 12.9268L13.5255 3.60376L18.3016 5.48763L14.6243 14.8107L9.84814 12.9268Z" fill="#DB874D"/>
<path d="M8.90356 3.60229H13.5296L18.306 5.48651L13.2571 5.66009L8.90356 3.60229Z" fill="#FFBC80"/>
<path d="M19.5277 24.0718L19.6433 25.2164L20.1893 25.7599C20.1893 25.7599 20.912 25.6662 20.9601 25.65C21.0083 25.634 21.2651 25.3288 21.2651 25.3288L21.2009 23.8879L19.5277 24.0718ZM23.5732 23.9361C23.5732 23.9361 23.7321 24.2627 23.8475 24.4906C23.963 24.7187 24.2131 25.2706 24.236 25.4607C24.2625 25.6808 25.5206 25.0792 25.6329 24.7304C25.601 24.3956 25.188 23.7173 25.0652 23.2226C24.9424 22.7275 23.5732 23.9361 23.5732 23.9361Z" fill="#EDEDED"/>
<path d="M26.402 11.3553C26.767 11.132 27.4804 11.015 28.022 10.3859C28.5637 9.75696 27.8294 10.079 27.8294 10.079C27.8294 10.079 26.8981 10.5476 26.8176 10.6194C26.7375 10.691 26.402 11.3553 26.402 11.3553Z" fill="#E5886E"/>
<path d="M17.3727 6.12305C18.1767 6.3128 21.0378 9.23712 21.4747 9.41921C21.9841 9.63137 25.8608 10.2131 25.9809 10.2308C26.061 10.2426 26.4015 10.2405 26.5021 10.208C26.5754 10.4653 26.5276 11.1646 26.2515 11.3818C25.9183 11.3818 21.0508 10.6694 20.6637 10.5904C20.2961 10.5155 17.2576 8.51639 17.1362 7.64931C17.046 7.0036 16.4705 6.38754 17.3727 6.12305Z" fill="#FFA383"/>
<path d="M26.2516 11.3814C26.5928 11.3654 26.7695 11.0923 27.0585 10.8997C27.3474 10.7071 27.9887 9.86044 28.4228 10.1072C28.4228 10.1072 28.4994 9.71195 28.0358 9.81605C27.5722 9.92014 27.0232 10.1848 26.502 10.2076" fill="#FFA383"/>
<path d="M23.7239 12.6971C24.0889 12.4738 24.8023 12.3568 25.344 11.7277C25.8856 11.0988 25.1514 11.4208 25.1514 11.4208C25.1514 11.4208 24.2201 11.8894 24.1397 11.961C24.0593 12.0328 23.7239 12.6971 23.7239 12.6971Z" fill="#E5886E"/>
<path d="M19.6056 25.0059C19.3696 25.0622 19.607 25.2837 19.6283 25.4251C19.643 25.5228 19.5744 26.1647 19.531 26.5554C19.5106 26.7324 19.5911 26.8 19.7196 26.8581C20.472 27.1983 23.3671 27.3351 23.7522 26.3401C23.8656 26.0488 23.3238 25.669 22.523 25.498C22.0249 25.3915 21.8685 25.0986 21.4329 24.6077C21.2749 24.4295 21.076 24.577 20.8177 25.2755C20.6309 25.7819 19.8416 24.9497 19.6056 25.0059ZM24.1993 25.679C24.2964 25.8469 24.1993 25.679 24.2767 25.7897C24.3302 25.8665 24.5422 26.439 24.6698 26.7884C24.7271 26.9463 24.8376 27.024 24.9554 26.9653C25.5003 26.6935 26.9591 25.9715 27.2891 25.7845C27.6906 25.5573 28.43 25.1026 28.4121 24.9056C28.3852 24.6111 28.0733 24.2126 27.1334 24.4215C26.6625 24.5263 25.9418 24.3531 25.991 24.4403C25.991 24.4403 25.4595 23.7488 25.1873 23.9849C24.8825 24.2491 25.0994 24.8149 24.6344 25.0266C24.1159 25.263 24.0296 25.3864 24.1993 25.679Z" fill="black"/>
<path d="M28.185 24.5194C28.1841 24.5193 28.1838 24.5186 28.183 24.5183L28.1909 24.5245C28.1886 24.5228 28.1871 24.5213 28.185 24.5194Z" fill="white"/>
<path d="M26.7252 25.6726C26.5927 25.9165 26.3529 26.1202 25.8462 26.0013C25.3394 25.8828 24.59 26.5714 24.5487 26.4602C24.5922 26.5765 24.6341 26.6913 24.6698 26.7886C24.7271 26.9464 24.8376 27.0241 24.9554 26.9654C25.5003 26.6937 26.9591 25.9717 27.2891 25.7846C27.6906 25.5574 28.43 25.1028 28.4122 24.9058C28.4009 24.783 28.3387 24.6423 28.2032 24.5349C28.3163 24.695 26.8524 25.4379 26.7252 25.6726Z" fill="#EDEDED" stroke="#EDEDED" stroke-width="0.281754" stroke-miterlimit="10" stroke-linecap="round" stroke-linejoin="round"/>
<path d="M22.4722 26.4883C21.9285 26.5693 21.8333 26.8505 21.4911 26.8342C21.1488 26.8181 21.0681 26.3622 20.7609 26.3197C20.454 26.277 19.5612 26.2858 19.5791 26.106C19.5629 26.2641 19.5455 26.4241 19.5307 26.5555C19.5103 26.7325 19.5909 26.8002 19.7194 26.8582C20.4717 27.1984 23.3668 27.3353 23.752 26.3403C23.8019 26.2128 23.7256 26.068 23.557 25.9314C23.5665 26.1777 23.0157 26.4068 22.4722 26.4883Z" fill="#EDEDED" stroke="#EDEDED" stroke-width="0.281754" stroke-miterlimit="10"/>
<path d="M37.9746 26.8874C37.9746 29.1588 36.1333 31 33.8617 31C31.5905 31 29.7493 29.1588 29.7493 26.8874C29.7493 24.6159 31.5905 22.7747 33.8617 22.7747C36.1333 22.7747 37.9746 24.6159 37.9746 26.8874Z" fill="black"/>
<path d="M36.8611 26.8873C36.8611 28.5437 35.5182 29.8866 33.8617 29.8866C32.2053 29.8866 30.8627 28.5437 30.8627 26.8873C30.8627 25.2308 32.2054 23.8879 33.8617 23.8879C35.5183 23.8879 36.8611 25.2308 36.8611 26.8873Z" fill="#80A4DD"/>
<path d="M36.3538 26.8874C36.3538 28.2636 35.2382 29.3793 33.8617 29.3793C32.4855 29.3793 31.3701 28.2636 31.3701 26.8874C31.3701 25.5111 32.4855 24.3955 33.8617 24.3955C35.2382 24.3955 36.3538 25.5111 36.3538 26.8874Z" fill="#0E263F"/>
<path d="M34.6561 26.8873C34.6561 27.3258 34.3004 27.6814 33.8618 27.6814C33.4235 27.6814 33.0679 27.3258 33.0679 26.8873C33.0679 26.4488 33.4235 26.0933 33.8618 26.0933C34.3004 26.0933 34.6561 26.4488 34.6561 26.8873Z" fill="black"/>
<path d="M29.1428 28.1131C31.3702 28.4082 32.7938 22.8316 36.1122 22.9055C36.354 22.911 36.4039 22.6733 36.2369 22.5668C35.3815 22.023 32.6622 20.1685 30.2457 22.3703C27.6762 24.7114 29.1428 28.1131 29.1428 28.1131Z" fill="#EA5E3D"/>
<path opacity="0.5" d="M31.0663 27.0338C30.2565 26.8873 29.871 25.298 30.2565 23.7778C30.5836 22.487 32.0603 21.2968 33.4064 21.3597C33.4064 21.3597 31.6046 20.984 30.2456 22.3701C28.8864 23.7564 28.2431 25.6178 29.1428 28.1128C29.1428 28.1128 29.8497 28.3811 31.0663 27.0338Z" fill="#C1C1C1"/>
<path d="M2.62056 20.3573C2.62056 20.3573 1.13401 20.3413 0.753227 20.6945C0.372442 21.0478 1.06296 23.5209 1.06296 23.5209L2.47605 23.4358L2.62056 20.3573Z" fill="#E04659"/>
<path d="M11.4466 26.8874C11.4466 29.1588 9.60533 31 7.33395 31C5.06243 31 3.22119 29.1588 3.22119 26.8874C3.22119 24.6159 5.06243 22.7747 7.33395 22.7747C9.60533 22.7747 11.4466 24.6159 11.4466 26.8874Z" fill="black"/>
<path d="M10.3331 26.8873C10.3331 28.5437 8.99036 29.8866 7.33406 29.8866C5.67761 29.8866 4.33472 28.5437 4.33472 26.8873C4.33472 25.2308 5.67761 23.8879 7.33406 23.8879C8.99036 23.8879 10.3331 25.2308 10.3331 26.8873Z" fill="#80A4DD"/>
<path d="M9.82585 26.8874C9.82585 28.2636 8.7103 29.3793 7.33409 29.3793C5.95773 29.3793 4.84204 28.2636 4.84204 26.8874C4.84204 25.5111 5.95773 24.3955 7.33409 24.3955C8.71016 24.3955 9.82585 25.5111 9.82585 26.8874Z" fill="#0E263F"/>
<path d="M8.12774 26.8873C8.12774 27.3258 7.77235 27.6814 7.33384 27.6814C6.89519 27.6814 6.53979 27.3258 6.53979 26.8873C6.53979 26.4488 6.89519 26.0933 7.33384 26.0933C7.77235 26.0933 8.12774 26.4488 8.12774 26.8873Z" fill="black"/>
<path d="M0 26.4525C0.000141819 26.4525 10.5536 26.5118 17.6359 26.7405C17.6359 26.7405 20.3997 26.8873 23.6726 26.8873C25.7281 26.8873 28.6476 25.8909 28.1338 22.7899C27.6199 19.6889 26.0356 13.2141 25.7603 12.1516C25.3106 10.4173 27.2867 11.2407 28.2012 12.2158C29.2251 13.3077 32.7468 18.1545 33.0679 19.7793C33.3889 21.4042 30.2025 21.0387 29.1318 24.3953C28.6571 25.8834 27.3647 27.7685 23.5732 27.7685C19.7866 27.7685 3.87677 27.0544 0.581603 26.9307C0.206491 26.9167 0 26.4525 0 26.4525Z" fill="#EA5E3D"/>
<path d="M0 26.4526C0.0774333 24.4898 1.94023 19.0943 5.9869 17.2959H16.5852C18.191 17.2959 18.2554 20.3341 16.521 20.3341C15.6217 20.3341 13.7634 21.538 17.6359 26.7408L0 26.4526Z" fill="#EA5E3D"/>
<path opacity="0.5" d="M1.76953 23.1997C4.6279 20.8446 9.04302 19.9795 10.9226 20.9089C12.518 21.6978 12.7412 23.8881 12.1751 26.0935C12.1751 26.0935 14.0057 21.9392 11.0832 20.4379C8.3542 19.0359 2.95784 21.4976 1.76953 23.1997ZM3.79712 18.7698C4.88459 18.2861 5.84811 17.7761 10.9226 18.2881C15.997 18.7999 17.6992 19.4575 17.6992 19.4575C17.6992 19.4575 17.892 19.1512 17.7955 18.6222C17.6991 18.0933 5.92909 17.2502 5.33189 17.629C4.73469 18.0078 4.18741 18.3841 3.79712 18.7698Z" fill="#C1C1C1"/>
<path d="M19.0536 17.0342C19.0536 17.9352 18.3231 18.6659 17.4218 18.6659L6.47367 17.5473C5.57255 17.5473 4.84204 17.9352 4.84204 17.0342C4.84204 16.1331 5.57255 15.4026 6.47367 15.4026H17.4218C18.3231 15.4026 19.0536 16.1331 19.0536 17.0342Z" fill="#80A4DD"/>
<path opacity="0.7" d="M25.6961 12.3338C25.6277 12.0329 25.7844 12.246 26.2581 12.6977C26.2581 12.6977 27.5854 14.0019 29.3064 13.5747L28.3135 12.275L25.7775 11.355C25.7775 11.355 25.4971 11.6875 25.6961 12.3338Z" fill="#C1C1C1"/>
<path d="M29.4269 9.29834C28.1155 9.29834 25.6959 10.2461 25.6959 11.124C25.6959 12.0018 27.8479 13.2652 29.4269 13.2652V9.29834Z" fill="#EA5E3D"/>
<path d="M30.1281 11.2817C30.1281 12.3772 29.8143 13.265 29.4271 13.265C29.0399 13.265 28.7261 12.3771 28.7261 11.2817C28.7261 10.1861 29.0399 9.29834 29.4271 9.29834C29.8143 9.29834 30.1281 10.1861 30.1281 11.2817Z" fill="#EA5E3D"/>
<path opacity="0.5" d="M25.7449 10.906C25.6961 11.1241 28.7021 11.3655 28.7407 10.906C28.7407 10.906 28.6864 11.5021 28.7657 11.9394C28.8489 12.3981 29.2283 12.3879 29.2283 12.3879L29.8485 12.8672C29.8485 12.8672 29.7081 13.2779 29.4271 13.2653C29.1463 13.2526 28.0031 13.3402 26.6917 12.4303C26.1172 12.0316 25.8391 11.721 25.7235 11.4782L25.755 11.3866C25.6841 11.2406 25.675 11.0148 25.7449 10.906Z" fill="#C1C1C1"/>
<path d="M30.2564 11.2818C30.2564 12.2017 29.9929 12.9471 29.6679 12.9471C29.3428 12.9471 29.0793 12.2017 29.0793 11.2818C29.0793 10.3621 29.3428 9.61646 29.6679 9.61646C29.9929 9.61646 30.2564 10.3621 30.2564 11.2818Z" fill="#FFBC80"/>
<path opacity="0.5" d="M6.87029 22.9823C6.87029 23.0834 6.78847 23.1654 6.68721 23.1654H4.11092C4.0098 23.1654 3.92783 23.0834 3.92783 22.9823C3.92783 22.8812 4.0098 22.7992 4.11092 22.7992H6.68721C6.78847 22.7992 6.87029 22.8812 6.87029 22.9823ZM7.90373 22.2779C7.90373 22.379 7.82176 22.4609 7.72064 22.4609H5.14421C5.0431 22.4609 4.96113 22.379 4.96113 22.2779C4.96113 22.1767 5.0431 22.0948 5.14421 22.0948H7.72064C7.82176 22.0948 7.90373 22.1767 7.90373 22.2779ZM28.2332 14.8818C28.2332 14.8818 29.4042 20.2334 30.3851 20.5664C31.5841 20.9731 33.068 20.1988 33.068 20.1988C33.068 20.1988 31.3165 21.2193 30.1496 20.6735C29.0402 20.1545 28.2332 14.8818 28.2332 14.8818ZM23.5732 27.7688L14.9211 27.5144L0.402909 26.8875L0 26.4527L23.5732 27.7688Z" fill="#C1C1C1"/>
<path d="M26.4058 11.9595C26.4058 12.2624 26.1607 12.5077 25.8578 12.5077C25.5552 12.5077 25.3098 12.2624 25.3098 11.9595C25.3098 11.6568 25.5552 11.4116 25.8578 11.4116C26.1606 11.4116 26.4058 11.6568 26.4058 11.9595Z" fill="#0A1D35"/>
<path d="M25.454 11.4209H25.9387V12.5013H25.454V11.4209Z" fill="#0A1D35"/>
<path d="M26.0986 12.0088C26.0715 12.3104 25.8052 12.5326 25.5036 12.5056C25.202 12.4786 24.9799 12.2121 25.0069 11.9106C25.0339 11.6093 25.3003 11.3869 25.6016 11.4138C25.9033 11.4409 26.1255 11.7073 26.0986 12.0088Z" fill="#102B51"/>
<path opacity="0.5" d="M2.41066 20.3599C1.89061 21.143 1.23441 21.843 0.725708 22.0183L0.92525 22.9822C0.92525 22.9822 2.2843 20.5329 2.41066 20.3599Z" fill="#C1C1C1"/>
<path d="M14.6741 1.97099C14.6741 2.94671 15.465 3.73792 16.4407 3.73792C17.4166 3.73792 18.2319 2.85254 18.2319 1.87682C18.2319 1.66636 18.2488 1.32472 18.1814 1.13766C17.9358 0.456925 17.2061 0.204346 16.4409 0.204346C15.465 0.204204 14.6741 0.99513 14.6741 1.97099Z" fill="#FFA383"/>
<path d="M23.5733 24.0086C23.2152 23.4362 21.4891 17.98 21.3454 16.8021C21.3454 16.8021 16.7485 16.0146 15.5367 16.0146C14.3247 16.0146 13.405 15.3015 13.2588 14.1583C13.1924 13.6404 15.0908 13.3866 17.1887 13.5499C19.7162 13.7467 22.5661 14.4604 23.0456 14.8817C23.4669 15.2516 24.9555 22.7522 25.2157 23.4179C25.404 23.8998 23.7006 24.212 23.5733 24.0086Z" fill="#0E263F"/>
<path d="M19.5018 24.2424C19.3719 23.3644 19.6159 18.802 19.5277 16.8599C19.5277 16.8599 14.0158 16.0144 12.8038 16.0144C11.5918 16.0144 10.6721 15.3013 10.526 14.1581C10.38 13.016 21.0106 14.1258 21.8882 14.8965C22.3095 15.2666 21.2086 23.1775 21.2921 23.8877C21.3756 24.5983 19.5732 24.7253 19.5018 24.2424Z" fill="#0E263F"/>
<path d="M19.9164 8.04028C19.7657 7.62177 18.6276 6.32583 18.2878 6.01113C17.8253 5.58284 16.8686 5.41435 15.9178 5.3901C14.5262 5.35479 13.2712 5.80095 12.9009 7.25247C12.5086 8.78979 10.5474 12.4192 10.3367 14.6291C10.2357 15.7399 15.8536 13.2655 17.1888 13.55C17.264 12.5845 17.9091 10.1561 18.0857 9.06223C18.0979 8.98678 18.4869 9.4467 18.5212 9.38146C19.7075 8.75235 19.9344 8.0902 19.9164 8.04028Z" fill="#EA5E3D"/>
<path d="M17.4014 5.50427C17.7046 5.85953 17.7059 6.69867 17.4916 6.91027C17.1877 7.20993 16.4542 7.28496 15.6075 6.87808C14.7036 6.44368 14.4673 5.54894 14.4673 5.54894C14.4673 5.54894 15.8489 5.14348 17.4014 5.50427Z" fill="white"/>
<path d="M15.1245 3.01723C15.2466 3.86999 15.2961 4.73509 15.1045 5.4466C15.1045 5.4466 14.7743 5.47751 14.759 5.49311C14.759 5.49311 15.0614 6.91031 16.7635 6.98661C17.8659 7.03625 17.4159 5.57367 17.2348 5.4639L16.8432 5.39299C16.8432 5.39299 16.7248 5.26478 16.8495 4.69382C16.9741 4.123 16.108 2.92065 16.108 2.92065L15.1245 3.01723Z" fill="#FFA383"/>
<path d="M16.8372 4.75428C16.6156 4.48312 15.7393 4.00533 15.6901 3.80253C15.6409 3.59959 15.1813 3.46826 15.1813 3.46826L15.2068 3.73772C15.4201 3.83784 15.4629 3.97952 15.6289 4.33563C15.9555 5.03678 16.8051 5.20768 16.8051 5.20768C16.8051 5.20768 16.7977 4.94162 16.8372 4.75428Z" fill="#E5886E"/>
<path d="M18.1814 2.27441C18.126 3.20588 17.7747 4.89949 17.3041 4.89495C16.9079 4.89098 15.8625 4.28683 15.8136 3.63602C15.7644 2.98521 15.7153 2.27455 15.7153 2.27455" fill="#FFA383"/>
<path d="M18.1707 2.41802C18.1672 2.207 16.5814 1.87868 16.2176 2.41391C16.0437 2.66961 16.0131 3.45274 15.9595 3.88046C15.954 3.92499 15.9463 3.96399 15.936 3.99392C15.9274 4.01817 16.1294 4.30067 16.3869 4.47653C16.033 4.33811 15.8269 4.13205 15.738 4.01179C15.5475 3.75368 15.1499 3.31857 14.6742 3.27929C14.2265 2.66011 14.296 1.57987 14.6427 0.987491C15.0425 0.304489 15.8248 -0.047931 16.454 0.00525124C17.2744 0.0743172 18.2337 0.476234 18.368 1.47095C18.3927 1.65489 18.4035 1.87585 18.3469 2.05397C18.2984 2.20671 18.1271 2.812 18.1271 2.812L18.1707 2.41802Z" fill="#EA5E3D"/>
<path d="M18.1271 2.81193C18.1458 2.74612 18.2811 2.27443 18.2811 2.27443C18.2811 2.27443 18.3265 2.0522 17.4594 1.9386C16.5923 1.82501 15.8652 1.81437 16.0091 3.31312C16.0091 3.31312 16.1131 2.38179 16.4489 2.25316C16.7849 2.12481 17.8229 2.32109 18.0977 2.36959C18.1741 2.38307 18.1695 2.47738 18.1503 2.60331C18.135 2.70202 18.1271 2.81193 18.1271 2.81193Z" fill="#0E263F"/>
<path d="M23.5732 12.7233C23.9147 12.7073 24.0913 12.4342 24.3803 12.2416C24.6694 12.049 25.3105 11.2023 25.7445 11.449C25.7445 11.449 25.8212 11.0539 25.3578 11.1578C24.894 11.262 24.3449 11.5265 23.824 11.5495" fill="#FFA383"/>
<path opacity="0.5" d="M18.0857 9.06215C18.0857 9.06215 18.1969 8.14685 18.1653 7.74536C18.1653 7.74536 18.4921 8.88162 18.4897 9.38139L18.0857 9.06215Z" fill="#C1C1C1"/>
<path d="M17.1334 3.08188C17.1283 3.1864 17.0605 3.26823 16.983 3.26426C16.905 3.26029 16.8465 3.17208 16.8516 3.06756C16.857 2.96261 16.9244 2.88107 17.0021 2.8849C17.0797 2.88901 17.1385 2.97694 17.1334 3.08188ZM18.029 3.14783C18.0239 3.25221 17.9563 3.33404 17.8785 3.33007C17.8007 3.3261 17.7423 3.23788 17.7475 3.13336C17.7525 3.02842 17.82 2.94687 17.8978 2.9507C17.9753 2.95467 18.0343 3.04274 18.029 3.14783Z" fill="#0E263F"/>
<path d="M17.7438 3.88938C17.7178 3.90172 17.5775 3.95108 17.5325 3.94271C17.4873 3.93477 17.297 3.85875 17.2869 3.83592C17.2764 3.81309 17.7932 3.86598 17.7438 3.88938Z" fill="#E5886E"/>
<path d="M17.1154 2.63019C17.1166 2.63104 17.1023 2.62749 17.0903 2.63005C17.0783 2.63161 17.061 2.63246 17.0402 2.63217C17.0306 2.63104 17.0201 2.63132 17.0094 2.63217C16.9989 2.6326 16.9889 2.62934 16.9781 2.63061C16.9574 2.63331 16.9365 2.62579 16.9154 2.63005C16.9048 2.63118 16.8941 2.63118 16.8828 2.62962C16.8717 2.63104 16.8612 2.63558 16.8497 2.63643C16.8275 2.6387 16.8039 2.64011 16.7842 2.64891C16.7427 2.65926 16.7072 2.66408 16.7072 2.66408L16.6865 2.66692C16.6465 2.67231 16.6098 2.64423 16.6045 2.60423C16.6023 2.58722 16.6061 2.57091 16.6142 2.55729C16.6142 2.55729 16.6346 2.52311 16.6767 2.47518C16.6881 2.4644 16.6986 2.4505 16.7139 2.43973C16.7305 2.43037 16.7479 2.42058 16.7659 2.41037C16.7845 2.40044 16.8042 2.39136 16.8251 2.38328C16.847 2.37775 16.87 2.37392 16.8933 2.37108C16.9164 2.36811 16.9396 2.36385 16.9625 2.36782C16.985 2.37137 17.0073 2.37491 17.0289 2.37832C17.0696 2.3925 17.1061 2.40909 17.1321 2.43093C17.1576 2.45164 17.1775 2.47319 17.1898 2.49234C17.2033 2.51021 17.2013 2.51886 17.2029 2.51914C17.2338 2.54325 17.239 2.58793 17.2149 2.6187C17.1907 2.64891 17.1461 2.6543 17.1154 2.63019Z" fill="#0E263F"/>
<path d="M17.7587 2.56129C17.7587 2.56129 17.7638 2.55661 17.7729 2.54852C17.7809 2.54186 17.8157 2.52753 17.8454 2.52044C17.8698 2.5169 17.8993 2.51009 17.931 2.51108C17.9627 2.51066 17.9973 2.51676 18.0312 2.52796C18.0652 2.53675 18.0984 2.55987 18.1268 2.57859C18.1526 2.60454 18.1743 2.63135 18.1872 2.65602C18.209 2.70935 18.2096 2.74551 18.2096 2.74551C18.2102 2.78366 18.1797 2.815 18.1417 2.81557C18.1326 2.81571 18.1238 2.81401 18.1157 2.81089L18.077 2.79571C18.077 2.79571 18.0517 2.78593 18.0351 2.77033C18.0238 2.76423 18.0089 2.76168 18.0001 2.75274C17.9849 2.7492 17.9744 2.7397 17.9579 2.73402C17.9417 2.72863 17.9255 2.72027 17.9075 2.71686C17.8903 2.70864 17.8735 2.70708 17.8584 2.70282C17.8491 2.7007 17.8505 2.68935 17.837 2.69049C17.8244 2.69063 17.8172 2.69063 17.8172 2.69063H17.8094C17.7682 2.69091 17.7348 2.65787 17.7346 2.61674C17.7342 2.5949 17.7438 2.5749 17.7587 2.56129Z" fill="#0E263F"/>
<path d="M17.7533 4.23667C17.7331 4.18902 17.0471 4.16264 16.9987 4.18632C16.9502 4.20986 17.1993 4.48584 17.3537 4.4979C17.4734 4.50726 17.7774 4.29339 17.7533 4.23667Z" fill="white"/>
<path d="M10.5514 13.5007C10.7853 12.7167 17.2021 12.9695 17.955 9.74562L18.0856 9.06205L18.1513 8.37664C18.1513 8.37664 17.9917 9.97991 15.8585 11.0731C13.9365 12.0578 11.0552 12.1123 10.7959 12.5952M9.57913 14.8817L7.13147 13.6774C7.13147 13.6774 5.27463 12.8015 6.07222 10.7795C6.86982 8.75742 8.90336 3.60229 8.90336 3.60229L13.2569 5.66009L9.57913 14.8817Z" fill="#EF9E62"/>
<path d="M14.6946 7.4646C15.4985 7.65435 18.3597 10.5788 18.7966 10.7608C19.3062 10.9729 23.1828 11.5547 23.3029 11.5724C23.3828 11.5842 23.7234 11.582 23.8241 11.5496C23.8973 11.8068 23.8496 12.506 23.5732 12.7234C23.2402 12.7234 18.7754 12.2564 18.3879 12.1774C18.0203 12.1025 14.1996 9.96133 14.078 9.0941C13.9877 8.44854 13.7922 7.72895 14.6946 7.4646Z" fill="#FFA383"/>
<path opacity="0.5" d="M15.547 10.5255C15.547 10.5255 16.5451 11.2098 17.5777 11.7402C17.5443 11.7645 15.3972 10.6474 15.3322 10.6627C15.2772 10.6757 15.2094 10.6821 15.1263 10.676C14.7936 10.6517 13.4416 9.78098 13.4992 8.27344L15.3575 10.3169L15.3381 10.3799L15.547 10.5255Z" fill="#C1C1C1"/>
<path d="M16.8371 8.82673C16.4081 8.85552 15.4467 9.76869 15.3158 10.4752C15.3158 10.4752 13.0641 9.58872 13.5488 7.63403C14.0336 5.67919 14.4234 6.88395 14.9673 7.15936C15.5112 7.43477 16.8371 8.82673 16.8371 8.82673Z" fill="#EA5E3D"/>
<path d="M11.7257 7.22081L12.5119 5.30766L13.8856 5.20768L12.8992 4.77173L11.5548 4.89497L10.7634 6.77762L11.7257 7.22081Z" fill="white"/>
</svg>
