<svg width="11" height="15" viewBox="0 0 11 15" fill="none" xmlns="http://www.w3.org/2000/svg">
<path d="M5.35714 1.07143C5.88691 1.07143 6.40479 1.22852 6.84528 1.52285C7.28577 1.81717 7.62909 2.23551 7.83182 2.72495C8.03455 3.2144 8.0876 3.75297 7.98425 4.27256C7.88089 4.79216 7.62578 5.26943 7.25118 5.64404C6.87657 6.01864 6.3993 6.27375 5.87971 6.3771C5.36011 6.48046 4.82154 6.42741 4.3321 6.22468C3.84265 6.02194 3.42432 5.67862 3.12999 5.23813C2.83567 4.79765 2.67857 4.27977 2.67857 3.75C2.67857 3.0396 2.96078 2.35829 3.46311 1.85596C3.96544 1.35363 4.64674 1.07143 5.35714 1.07143ZM5.35714 0C4.61546 0 3.89044 0.219934 3.27375 0.631989C2.65707 1.04404 2.17642 1.62971 1.89259 2.31494C1.60877 3.00016 1.5345 3.75416 1.6792 4.48159C1.82389 5.20902 2.18105 5.8772 2.70549 6.40165C3.22994 6.9261 3.89813 7.28325 4.62555 7.42794C5.35298 7.57264 6.10698 7.49838 6.79221 7.21455C7.47743 6.93072 8.0631 6.45007 8.47515 5.83339C8.88721 5.2167 9.10714 4.49168 9.10714 3.75C9.10714 2.75544 8.71205 1.80161 8.00879 1.09835C7.30553 0.395088 6.3517 0 5.35714 0ZM10.7143 15H9.64286V12.3214C9.64286 11.9697 9.57357 11.6214 9.43896 11.2964C9.30435 10.9714 9.10705 10.6761 8.85832 10.4274C8.60959 10.1787 8.31431 9.98136 7.98933 9.84675C7.66435 9.71214 7.31604 9.64286 6.96429 9.64286H3.75C3.0396 9.64286 2.35829 9.92506 1.85596 10.4274C1.35363 10.9297 1.07143 11.611 1.07143 12.3214V15H0V12.3214C0 11.3269 0.395088 10.373 1.09835 9.66978C1.80161 8.96652 2.75544 8.57143 3.75 8.57143H6.96429C7.95885 8.57143 8.91267 8.96652 9.61594 9.66978C10.3192 10.373 10.7143 11.3269 10.7143 12.3214V15Z" fill="#898989"/>
</svg>
