<svg width="45" height="50" viewBox="0 0 68 50" fill="none" xmlns="http://www.w3.org/2000/svg">
<path d="M69.2308 29.5491C69.2308 30.1517 68.9876 30.7296 68.5548 31.1557C68.1221 31.5818 67.5351 31.8212 66.923 31.8212H62.3076V36.3654C62.3076 36.9681 62.0645 37.546 61.6317 37.9721C61.1989 38.3982 60.6119 38.6376 59.9999 38.6376C59.3878 38.6376 58.8009 38.3982 58.3681 37.9721C57.9353 37.546 57.6922 36.9681 57.6922 36.3654V31.8212H53.0767C52.4647 31.8212 51.8777 31.5818 51.4449 31.1557C51.0122 30.7296 50.769 30.1517 50.769 29.5491C50.769 28.9464 51.0122 28.3685 51.4449 27.9424C51.8777 27.5163 52.4647 27.2769 53.0767 27.2769H57.6922V22.7327C57.6922 22.1301 57.9353 21.5521 58.3681 21.126C58.8009 20.6999 59.3878 20.4605 59.9999 20.4605C60.6119 20.4605 61.1989 20.6999 61.6317 21.126C62.0645 21.5521 62.3076 22.1301 62.3076 22.7327V27.2769H66.923C67.5351 27.2769 68.1221 27.5163 68.5548 27.9424C68.9876 28.3685 69.2308 28.9464 69.2308 29.5491ZM52.5373 46.2634C52.9313 46.7252 53.1229 47.3221 53.0699 47.9229C53.0168 48.5237 52.7236 49.0792 52.2546 49.4671C51.7856 49.855 51.1793 50.0437 50.5691 49.9915C49.9589 49.9393 49.3947 49.6505 49.0007 49.1888C43.1968 42.3838 35.2179 38.6376 26.538 38.6376C17.8581 38.6376 9.87916 42.3838 4.07526 49.1888C3.68125 49.6502 3.11724 49.9385 2.50729 49.9905C1.89734 50.0424 1.29141 49.8536 0.822817 49.4657C0.354221 49.0778 0.0613341 48.5224 0.00858894 47.9219C-0.0441562 47.3214 0.14756 46.7248 0.541564 46.2634C4.85123 41.2136 10.2109 37.6265 16.1677 35.7065C12.5501 33.4881 9.7647 30.17 8.233 26.2541C6.70129 22.3383 6.50658 18.0378 7.67832 14.0033C8.85007 9.9688 11.3245 6.4198 14.7273 3.89323C18.1301 1.36666 22.2761 0 26.538 0C30.7999 0 34.9459 1.36666 38.3487 3.89323C41.7515 6.4198 44.2259 9.9688 45.3977 14.0033C46.5694 18.0378 46.3747 22.3383 44.843 26.2541C43.3113 30.17 40.5259 33.4881 36.9083 35.7065C42.8651 37.6265 48.2248 41.2136 52.5373 46.2634ZM26.538 34.0933C29.5047 34.0933 32.4049 33.2271 34.8716 31.6043C37.3384 29.9815 39.261 27.6749 40.3963 24.9763C41.5317 22.2776 41.8287 19.3081 41.2499 16.4432C40.6711 13.5783 39.2425 10.9468 37.1447 8.88131C35.0469 6.81585 32.3741 5.40926 29.4644 4.8394C26.5546 4.26954 23.5386 4.56201 20.7977 5.67983C18.0568 6.79765 15.7141 8.69061 14.0658 11.1193C12.4176 13.5481 11.5378 16.4035 11.5378 19.3245C11.5424 23.24 13.1243 26.9939 15.9363 29.7626C18.7484 32.5314 22.5611 34.0888 26.538 34.0933Z" fill="#FFBF00"/>
</svg>
